<?xml version="1.0" standalone="no"?>
<!DOCTYPE svg PUBLIC "-//W3C//DTD SVG 20010904//EN"
 "http://www.w3.org/TR/2001/REC-SVG-20010904/DTD/svg10.dtd">
<svg version="1.0" xmlns="http://www.w3.org/2000/svg"
 width="507.000000pt" height="507.000000pt" viewBox="0 0 507.000000 507.000000"
 preserveAspectRatio="xMidYMid meet">
<metadata>
Created by potrace 1.11, written by Peter Selinger 2001-2013
</metadata>
<g transform="translate(0.000000,507.000000) scale(0.100000,-0.100000)"
fill="#000000" stroke="none">
<path d="M0 2535 l0 -2455 2535 0 2535 0 0 2455 0 2455 -2535 0 -2535 0 0
-2455z m1257 2089 c-3 -3 -12 -4 -19 -1 -8 3 -5 6 6 6 11 1 17 -2 13 -5z
m-124 -11 c-7 -2 -19 -2 -25 0 -7 3 -2 5 12 5 14 0 19 -2 13 -5z m-230 -20
c-7 -2 -19 -2 -25 0 -7 3 -2 5 12 5 14 0 19 -2 13 -5z m-116 -9 c-3 -3 -12 -4
-19 -1 -8 3 -5 6 6 6 11 1 17 -2 13 -5z m1060 -60 c-3 -3 -12 -4 -19 -1 -8 3
-5 6 6 6 11 1 17 -2 13 -5z m-1255 -386 c45 -17 76 -34 72 -40 -4 -5 -18 -8
-33 -5 -34 7 -63 -8 -32 -16 12 -3 21 -10 21 -16 0 -7 -8 -7 -26 -1 -33 13
-33 13 -27 -9 6 -24 -24 -53 -48 -46 -15 5 -19 1 -19 -17 0 -13 6 -33 14 -44
17 -24 6 -47 -19 -42 -34 6 -48 73 -40 182 l7 98 26 -7 c15 -4 62 -20 104 -37z
m144 -57 c-7 -11 -56 -21 -56 -10 0 9 19 17 43 18 10 1 16 -3 13 -8z m131 -67
c-10 -60 -20 -61 -31 -1 -6 33 -5 37 15 37 19 0 21 -4 16 -36z m2017 30 c9 -3
16 -11 16 -16 0 -7 -4 -7 -12 0 -7 5 -22 12 -33 15 -15 3 -16 5 -3 6 9 0 23
-2 32 -5z m-387 -26 c-3 -8 -6 -5 -6 6 -1 11 2 17 5 13 3 -3 4 -12 1 -19z
m-1337 -85 c0 -10 -4 -24 -9 -32 -8 -12 -12 -12 -25 -2 -26 21 -20 51 9 51 17
0 25 -5 25 -17z m1106 -32 c-9 -8 -19 -11 -23 -7 -4 4 -1 11 6 15 8 6 10 14 5
22 -6 11 -4 11 10 0 15 -13 15 -16 2 -30z m-96 -1 c0 -21 -24 -28 -35 -10 -8
14 3 30 21 30 8 0 14 -9 14 -20z m-1664 -78 c-9 -33 -16 -73 -16 -88 0 -23 -2
-26 -10 -14 -15 23 -12 47 11 112 27 74 35 69 15 -10z m1031 -34 c-3 -8 -6 -5
-6 6 -1 11 2 17 5 13 3 -3 4 -12 1 -19z m33 -93 c0 -13 -4 -27 -10 -30 -6 -4
-10 8 -10 30 0 22 4 34 10 30 6 -3 10 -17 10 -30z m-440 -4 c0 -5 -7 -11 -15
-15 -9 -3 -15 0 -15 9 0 8 7 15 15 15 8 0 15 -4 15 -9z m430 -71 c0 -5 -5 -12
-11 -16 -7 -4 -10 -29 -7 -65 3 -39 1 -58 -6 -56 -11 4 -21 120 -12 143 5 14
36 8 36 -6z m-1055 -51 c8 -23 1 -34 -14 -24 -13 8 -15 45 -2 45 5 0 13 -9 16
-21z m-17 -87 c3 -41 2 -42 -17 -30 -28 17 -30 81 -3 76 12 -2 18 -15 20 -46z
m2659 -339 c-1 -65 -3 -12 -3 117 0 129 2 182 3 118 2 -65 2 -171 0 -235z
m-1737 318 c0 -9 -34 -21 -60 -21 -9 1 -5 7 10 15 29 16 50 19 50 6z m121 -7
c17 -8 28 -18 26 -21 -7 -7 -75 16 -82 28 -9 14 23 11 56 -7z m1449 -33 c0 -7
-6 -11 -14 -8 -7 3 -19 0 -25 -6 -14 -14 -15 2 -1 39 10 26 11 26 25 8 8 -10
15 -25 15 -33z m-169 2 c-12 -20 -14 -14 -5 12 4 9 9 14 11 11 3 -2 0 -13 -6
-23z m-1896 -13 c10 -11 16 -20 13 -20 -3 0 -13 9 -23 20 -10 11 -16 20 -13
20 3 0 13 -9 23 -20z m570 10 c-3 -5 -15 -10 -26 -10 -10 0 -19 5 -19 10 0 6
12 10 26 10 14 0 23 -4 19 -10z m1245 -30 c0 -5 -8 -10 -17 -10 -15 0 -16 2
-3 10 19 12 20 12 20 0z m256 -36 c-5 -13 -2 -15 13 -11 14 3 21 -2 25 -19 7
-25 25 -33 27 -11 0 6 4 3 9 -8 5 -11 9 -77 9 -147 l1 -128 -59 0 c-88 0 -121
9 -121 33 0 11 -7 25 -16 31 -24 18 -19 160 7 177 21 13 27 11 32 -13 2 -13 5
0 6 28 1 52 15 71 49 65 6 -1 12 3 12 9 0 5 3 10 6 10 3 0 3 -7 0 -16z m-1593
-45 c-23 -11 -63 -21 -90 -24 -59 -6 -49 0 42 24 90 24 100 24 48 0z m177 -29
c0 -5 -2 -10 -4 -10 -3 0 -8 5 -11 10 -3 6 -1 10 4 10 6 0 11 -4 11 -10z
m1094 -47 c-10 -42 -24 -52 -24 -17 0 31 6 44 22 44 5 0 5 -12 2 -27z m173
-140 c-2 -27 -3 -5 -3 47 0 52 1 74 3 48 2 -27 2 -69 0 -95z m-156 74 c-10 -9
-11 -8 -5 6 3 10 9 15 12 12 3 -3 0 -11 -7 -18z m-1504 -88 l165 -92 -28 -22
-29 -23 -42 25 c-54 32 -56 22 -3 -13 45 -30 47 -40 6 -25 -35 14 -35 -6 2
-35 78 -63 -49 -11 -190 78 -56 35 -71 62 -30 52 37 -9 63 -23 89 -47 26 -23
43 -16 22 9 -7 9 -37 31 -66 50 -29 19 -53 36 -53 39 0 3 19 2 42 -1 l42 -7
-53 51 c-30 29 -50 52 -46 52 4 0 82 -41 172 -91z m1493 56 c10 -12 10 -15 -4
-15 -9 0 -16 7 -16 15 0 8 2 15 4 15 2 0 9 -7 16 -15z m-1508 -289 c74 -41 87
-53 64 -62 -16 -6 -127 64 -186 117 l-35 31 45 -25 c25 -13 75 -41 112 -61z
m-42 -37 c44 -23 79 -47 77 -53 -2 -6 3 -16 10 -21 12 -9 12 -16 2 -40 -7 -17
-14 -32 -15 -33 -5 -7 -173 101 -196 125 l-23 25 45 -17 c25 -10 62 -31 83
-47 21 -17 40 -28 43 -25 12 12 -14 40 -67 72 -110 67 -81 76 41 14z m115
-159 c3 -5 2 -10 -4 -10 -5 0 -13 5 -16 10 -3 6 -2 10 4 10 5 0 13 -4 16 -10z
m481 -186 c44 -21 68 -65 60 -109 -12 -65 -77 -95 -203 -95 l-72 0 -3 -32 c-3
-31 -5 -33 -43 -33 l-40 0 -3 73 -3 72 129 0 c135 0 160 8 146 43 -5 14 -28
17 -141 19 l-134 3 28 37 28 37 108 1 c81 0 118 -4 143 -16z m444 9 c0 -3 -11
-21 -26 -40 l-25 -33 -88 0 c-102 0 -125 -14 -119 -71 4 -48 33 -59 156 -59
56 0 102 -3 102 -6 0 -3 -12 -21 -27 -41 l-27 -35 -91 4 c-115 5 -160 26 -193
91 -28 54 -24 91 16 139 40 48 73 57 205 58 64 0 117 -3 117 -7z m497 -4 c79
-30 99 -105 42 -161 l-30 -31 35 -36 c20 -20 36 -40 36 -44 0 -4 -22 -7 -50
-7 -44 0 -53 4 -81 35 -30 33 -36 35 -95 35 l-63 0 -3 -32 c-3 -32 -5 -33 -48
-33 l-45 0 -3 73 -3 72 134 0 c107 0 137 3 147 15 7 8 10 22 6 30 -4 12 -29
15 -141 15 -74 0 -135 3 -135 7 0 3 11 21 26 40 l25 33 109 0 c60 0 121 -5
137 -11z m413 -29 l-32 -40 -84 0 c-67 0 -84 -3 -84 -15 0 -11 21 -15 106 -17
l107 -3 -27 -32 c-27 -32 -30 -33 -107 -33 -64 0 -79 -3 -79 -15 0 -12 20 -15
116 -15 l116 0 -32 -40 -32 -41 -132 3 -131 3 -3 129 c-1 72 0 136 2 143 4 10
43 13 167 13 l161 0 -32 -40z m356 24 c44 -21 68 -65 60 -109 -12 -65 -77 -95
-203 -95 l-72 0 -3 -32 c-3 -31 -5 -33 -43 -33 l-40 0 -3 73 -3 72 129 0 c135
0 160 8 146 43 -5 14 -28 17 -141 19 l-134 3 28 37 28 37 108 1 c81 0 118 -4
143 -16z m307 -26 c60 -76 166 -236 160 -242 -8 -7 -313 -8 -313 -1 0 3 10 21
23 40 20 31 26 34 79 37 l58 3 -31 48 c-17 26 -34 47 -38 47 -3 -1 -34 -41
-69 -90 -62 -89 -63 -90 -106 -90 -23 0 -45 3 -48 6 -7 7 155 241 184 267 34
29 63 21 101 -25z m285 -100 l-3 -143 -42 -3 -43 -3 0 145 0 146 45 0 46 0 -3
-142z m379 116 c39 -30 51 -76 30 -120 -10 -19 -26 -38 -37 -42 -19 -7 -17
-10 20 -47 22 -21 40 -43 40 -47 0 -4 -24 -8 -54 -8 -49 0 -57 3 -85 35 -29
33 -34 35 -95 35 l-65 0 -3 -32 c-3 -31 -5 -33 -43 -33 l-40 0 -3 73 -3 72
128 0 c70 0 134 4 141 9 8 5 12 17 10 27 -3 17 -16 19 -141 24 l-138 5 28 38
28 37 127 -2 c111 -3 130 -6 155 -24z m-3362 -133 c3 -5 1 -12 -5 -16 -5 -3
-10 1 -10 9 0 18 6 21 15 7z m-115 -47 c0 -14 -4 -23 -10 -19 -5 3 -10 15 -10
26 0 10 5 19 10 19 6 0 10 -12 10 -26z m1348 -412 c3 -89 4 -93 28 -102 38
-15 107 -12 132 6 20 14 22 23 22 105 l0 89 45 0 45 0 0 -96 c0 -150 -36 -187
-180 -188 -144 0 -190 46 -190 190 0 44 3 84 7 88 4 4 25 6 48 4 l40 -3 3 -93z
m652 92 c0 -3 -12 -21 -26 -40 -24 -31 -31 -34 -75 -34 l-49 0 0 -106 0 -105
-42 3 -43 3 -3 103 -3 102 -59 0 c-33 0 -60 3 -60 7 0 3 11 21 26 40 l25 33
155 0 c84 0 154 -3 154 -6z m213 -36 c60 -76 166 -236 160 -242 -8 -7 -313 -8
-313 -1 0 3 10 21 23 40 20 31 26 34 79 37 l58 3 -31 48 c-17 26 -34 47 -38
47 -3 -1 -34 -41 -69 -90 -62 -89 -63 -90 -106 -90 -23 0 -45 3 -48 6 -7 7
155 241 184 267 34 29 63 21 101 -25z m285 -10 l3 -48 74 0 74 0 3 48 3 47 45
0 45 0 0 -140 0 -140 -45 0 -45 0 -3 53 -3 52 -74 0 -74 0 -3 -52 -3 -53 -45
0 -45 0 -3 129 c-1 72 0 136 3 144 3 9 18 12 47 10 l43 -3 3 -47z m-2138 -822
c-25 -15 -45 -12 -35 5 4 5 18 9 33 9 l27 -1 -25 -13z m3398 -82 c53 -48 113
-98 132 -112 43 -32 96 -80 171 -155 l58 -57 -74 -70 c-41 -39 -82 -70 -92
-71 -17 0 -17 -1 1 -8 17 -7 17 -8 2 -24 -10 -9 -23 -17 -29 -17 -1512 -2
-3621 -10 -3672 -15 -38 -3 -110 -8 -159 -12 l-88 -6 -39 43 c-34 37 -39 49
-38 84 1 23 -3 51 -9 63 -7 12 -12 30 -12 40 0 32 187 204 255 233 22 10 49
27 59 39 14 16 31 21 65 21 25 0 63 5 84 11 22 6 41 8 43 6 3 -3 -18 -32 -45
-65 -28 -34 -51 -66 -51 -71 0 -12 15 -16 109 -31 40 -7 69 -15 63 -19 -6 -3
-9 -23 -8 -43 1 -21 -1 -39 -5 -40 -3 -2 -9 -15 -12 -30 -7 -26 -6 -27 48 -33
30 -4 281 -4 557 0 676 10 1249 10 1803 0 253 -4 504 -4 557 0 l97 7 -3 26
c-2 15 -11 42 -21 59 -28 55 -15 69 68 77 85 8 107 14 107 27 0 5 -22 37 -50
70 -27 33 -50 62 -50 65 0 3 21 3 48 0 26 -4 62 -9 80 -11 l33 -4 -32 40 c-17
21 -40 46 -52 54 -12 8 -16 15 -9 15 7 0 57 -39 110 -86z m-3468 22 c0 -2 -8
-10 -17 -17 -16 -13 -17 -12 -4 4 13 16 21 21 21 13z m3130 -210 c0 -3 -4 -8
-10 -11 -5 -3 -10 -1 -10 4 0 6 5 11 10 11 6 0 10 -2 10 -4z"/>
<path d="M908 560 l32 -35 258 -1 257 -1 -257 6 -257 6 -33 30 -33 30 33 -35z"/>
<path d="M1503 523 c9 -2 25 -2 35 0 9 3 1 5 -18 5 -19 0 -27 -2 -17 -5z"/>
<path d="M1603 523 c15 -2 39 -2 55 0 15 2 2 4 -28 4 -30 0 -43 -2 -27 -4z"/>
<path d="M1738 523 c12 -2 30 -2 40 0 9 3 -1 5 -23 4 -22 0 -30 -2 -17 -4z"/>
<path d="M1938 523 c23 -2 61 -2 85 0 23 2 4 4 -43 4 -47 0 -66 -2 -42 -4z"/>
<path d="M2138 523 c12 -2 30 -2 40 0 9 3 -1 5 -23 4 -22 0 -30 -2 -17 -4z"/>
<path d="M2248 523 c7 -3 16 -2 19 1 4 3 -2 6 -13 5 -11 0 -14 -3 -6 -6z"/>
<path d="M2343 523 c9 -2 23 -2 30 0 6 3 -1 5 -18 5 -16 0 -22 -2 -12 -5z"/>
</g>
</svg>
