<?xml version="1.0" standalone="no"?>
<!DOCTYPE svg PUBLIC "-//W3C//DTD SVG 20010904//EN"
 "http://www.w3.org/TR/2001/REC-SVG-20010904/DTD/svg10.dtd">
<svg version="1.0" xmlns="http://www.w3.org/2000/svg"
 width="636.000000pt" height="636.000000pt" viewBox="0 0 636.000000 636.000000"
 preserveAspectRatio="xMidYMid meet">
<metadata>
Created by potrace 1.11, written by Peter Selinger 2001-2013
</metadata>
<g transform="translate(0.000000,636.000000) scale(0.100000,-0.100000)"
fill="#000000" stroke="none">
<path d="M3605 5855 c-5 -1 -37 -8 -70 -16 -33 -7 -69 -17 -80 -23 -11 -6 -22
-11 -25 -11 -22 -4 -50 -18 -50 -26 0 -5 -3 -8 -7 -7 -11 3 -85 -37 -108 -59
-11 -10 -33 -26 -48 -36 -15 -10 -25 -23 -21 -29 4 -7 3 -8 -5 -4 -6 4 -14 0
-17 -8 -3 -9 -11 -16 -16 -16 -5 0 -18 -10 -28 -22 -16 -20 -76 -35 -64 -17 4
7 -89 43 -112 44 -6 0 -19 6 -28 14 -9 7 -25 11 -36 8 -11 -3 -18 -2 -15 3 3
4 -15 13 -40 19 -55 14 -58 14 -49 -1 4 -7 3 -8 -5 -4 -6 4 -9 11 -6 16 4 7
-56 25 -110 33 -11 1 -26 6 -32 10 -7 5 -13 6 -13 3 0 -2 -22 2 -50 9 -33 9
-52 10 -56 3 -4 -7 -9 -7 -13 0 -3 6 -32 13 -64 16 -43 4 -56 2 -50 -7 5 -9 3
-9 -9 1 -18 14 -80 24 -72 11 3 -5 0 -9 -5 -9 -6 0 -11 5 -11 11 0 6 -6 9 -12
6 -7 -2 -12 -10 -10 -16 1 -7 -2 -10 -8 -6 -6 3 -8 10 -5 15 3 5 -27 7 -67 5
-40 -2 -81 -4 -91 -4 -10 -1 -16 -5 -13 -10 3 -5 -1 -11 -9 -14 -10 -4 -12 -1
-8 10 4 11 2 14 -8 11 -8 -3 -13 -10 -12 -15 1 -5 -4 -10 -12 -10 -8 0 -11 5
-8 10 4 7 -1 8 -13 3 -10 -5 -26 -9 -34 -10 -67 -9 -110 -20 -110 -27 0 -5 -3
-8 -7 -7 -26 7 -168 -63 -156 -77 5 -4 2 -5 -5 -1 -8 5 -27 -3 -48 -19 -30
-23 -33 -29 -22 -43 12 -15 11 -16 -5 -3 -15 12 -20 11 -38 -4 -11 -11 -18
-24 -15 -31 3 -7 0 -11 -7 -9 -7 3 -26 -15 -43 -38 -40 -53 -76 -117 -66 -117
4 0 0 -4 -8 -10 -12 -7 -11 -12 5 -32 11 -13 13 -17 5 -10 -17 14 -34 16 -25
2 3 -5 2 -10 -3 -10 -12 0 -23 -40 -16 -52 3 -5 13 -3 22 4 15 12 16 11 4 -4
-8 -9 -20 -14 -27 -12 -9 4 -12 -1 -11 -13 2 -10 0 -25 -4 -33 -4 -8 -10 -46
-13 -85 -5 -56 -3 -73 11 -90 16 -19 16 -19 0 -6 -16 12 -17 8 -12 -51 6 -66
11 -103 14 -103 1 0 4 -13 6 -30 3 -31 9 -52 44 -164 11 -35 20 -68 20 -73 0
-5 8 -20 17 -35 10 -14 18 -33 19 -41 2 -8 8 -18 14 -22 7 -4 11 -9 9 -11 -4
-7 22 -79 30 -79 4 0 11 4 17 10 6 6 10 3 10 -9 0 -12 -5 -17 -15 -13 -9 3
-12 1 -7 -6 4 -7 2 -12 -4 -12 -6 0 -9 -4 -6 -9 3 -4 -6 -6 -21 -3 -16 3 -24
1 -20 -5 4 -6 -4 -8 -20 -5 -20 4 -24 2 -18 -9 7 -11 6 -12 -7 -2 -8 7 -17 10
-20 8 -8 -8 -171 -56 -195 -57 -7 -1 -13 -6 -13 -11 0 -6 -3 -8 -6 -5 -8 9
-156 -39 -165 -54 -6 -8 -9 -9 -9 -1 0 8 -6 8 -24 0 -13 -7 -22 -15 -20 -18 2
-4 -5 -5 -16 -2 -11 3 -20 0 -20 -6 0 -6 -3 -10 -7 -9 -16 4 -73 -14 -73 -23
0 -5 -3 -8 -7 -7 -34 11 -468 -218 -481 -253 -2 -5 -10 -9 -18 -9 -8 0 -17 -7
-20 -15 -4 -8 -12 -15 -19 -15 -7 0 -58 -44 -112 -97 -95 -93 -140 -149 -135
-165 1 -5 -2 -8 -6 -8 -15 0 -55 -87 -47 -101 5 -7 4 -10 -3 -5 -13 8 -24 -27
-38 -118 -2 -16 -6 -32 -9 -34 -3 -3 1 -12 8 -20 7 -9 7 -13 1 -9 -11 6 -11
-21 1 -106 7 -47 54 -167 66 -167 5 0 8 -3 7 -7 -4 -17 33 -73 44 -67 6 4 8 3
5 -3 -8 -12 38 -65 48 -55 5 4 5 2 2 -4 -8 -13 27 -57 37 -47 3 3 6 -1 6 -9 0
-9 10 -22 23 -31 12 -8 31 -23 42 -34 59 -55 115 -94 126 -87 7 4 9 3 6 -3 -9
-15 78 -70 252 -160 47 -23 86 -41 89 -38 2 2 11 -3 19 -11 9 -8 22 -13 30
-10 9 4 11 2 7 -6 -5 -8 -2 -9 9 -5 10 3 17 3 17 -2 0 -12 110 -52 122 -44 6
3 8 2 5 -4 -5 -9 49 -34 83 -38 8 -1 33 -10 54 -19 21 -10 47 -18 57 -19 11
-1 19 -5 19 -9 0 -4 3 -7 8 -6 4 1 28 -4 54 -11 45 -13 62 -24 70 -46 1 -5 7
-9 13 -7 5 2 4 -2 -2 -9 -16 -16 -17 -49 -2 -49 5 0 7 5 3 12 -4 7 -3 8 5 4 9
-6 9 -11 0 -22 -6 -8 -8 -21 -3 -31 9 -23 11 -29 13 -49 1 -14 3 -15 18 -3 15
13 15 12 6 -5 -12 -21 2 -66 19 -66 5 0 7 -4 3 -9 -3 -5 5 -17 17 -25 12 -9
18 -16 13 -16 -15 0 87 -93 126 -117 19 -11 42 -19 52 -17 9 1 15 -3 14 -8 -2
-10 68 -41 118 -53 11 -2 46 -11 78 -19 40 -10 55 -11 50 -3 -5 9 -3 9 8 1 17
-13 11 -13 169 -17 161 -5 242 1 233 16 -4 8 -2 8 9 0 8 -7 17 -11 20 -8 4 5
97 17 141 19 20 0 23 12 5 19 -10 4 -10 6 0 6 8 1 10 6 6 13 -4 8 -3 10 2 5 5
-5 9 -14 9 -20 0 -7 13 -11 33 -9 34 2 34 2 28 -35 -3 -21 -8 -83 -11 -138 -4
-55 -8 -120 -10 -145 -2 -25 -7 -106 -11 -180 -3 -74 -8 -137 -10 -140 -12
-23 29 -28 246 -34 129 -4 273 -9 320 -11 47 -2 168 -7 270 -10 102 -3 222 -8
268 -11 l82 -4 0 95 0 95 56 0 c34 0 53 4 49 10 -4 6 5 8 22 4 15 -3 42 0 58
7 17 7 36 11 43 10 6 -1 12 6 12 16 0 15 2 16 10 3 8 -12 10 -12 16 4 5 14 9
15 16 4 7 -10 11 -10 15 0 2 6 11 12 19 12 8 0 17 6 20 14 3 9 12 12 21 9 11
-4 14 -2 9 5 -5 8 -2 10 8 6 9 -3 16 -2 16 4 0 5 9 12 21 15 13 4 18 10 13 18
-4 7 -3 10 3 6 14 -9 55 22 47 35 -5 7 -2 8 5 3 14 -8 94 63 85 77 -3 4 2 5
12 1 13 -5 15 -2 9 18 -4 15 -3 19 3 11 6 -10 12 -8 26 7 10 11 15 24 11 30
-3 7 0 8 9 5 8 -3 19 3 25 15 6 11 23 33 37 48 33 35 57 81 49 93 -3 5 0 8 7
5 13 -5 27 16 72 100 12 22 23 42 26 45 12 12 50 93 50 106 0 8 5 14 11 14 8
0 7 5 -1 15 -11 13 -10 14 3 9 12 -4 18 2 23 22 4 15 13 39 20 53 7 13 11 28
8 33 -7 10 85 44 146 54 66 10 95 17 98 25 2 5 8 7 13 3 5 -3 51 7 102 21 50
14 116 33 145 41 29 9 50 19 48 22 -2 4 12 8 32 9 20 1 38 6 40 12 2 5 10 7
18 4 8 -3 14 -1 14 4 0 5 8 9 18 10 19 2 165 57 194 73 10 6 24 10 31 10 7 0
23 9 34 19 12 11 23 18 26 15 3 -3 25 5 49 17 23 13 47 22 52 21 5 -2 6 4 3
12 -4 10 -1 13 8 10 18 -7 211 102 281 159 10 9 45 37 77 62 32 26 54 51 51
57 -4 6 -2 8 3 5 13 -8 46 27 36 38 -5 4 -3 5 4 2 12 -7 80 68 76 84 -2 5 1 9
5 9 5 0 19 14 31 31 13 18 17 28 10 24 -8 -5 -6 1 4 13 11 12 16 26 11 33 -4
7 -3 10 3 6 10 -7 18 9 43 83 19 57 21 188 4 260 -15 65 -54 160 -77 186 -27
30 -37 43 -37 49 0 4 -6 12 -12 20 -7 7 -31 33 -52 59 -21 25 -43 43 -48 40
-5 -3 -7 -2 -6 3 6 17 -184 168 -196 156 -3 -4 -6 -1 -6 5 0 12 -59 48 -72 44
-5 -1 -8 2 -8 8 0 5 -6 10 -14 10 -8 0 -16 7 -19 15 -4 8 -15 12 -27 10 -11
-2 -18 0 -15 6 4 5 2 9 -4 9 -6 0 -15 10 -22 21 -6 12 -7 19 -1 15 6 -3 15 8
21 24 5 17 8 30 5 30 -3 0 2 7 10 16 9 8 14 20 11 25 -4 5 -1 9 5 9 6 0 8 5 5
10 -3 6 -2 10 3 10 15 0 21 37 8 50 -8 9 -7 11 4 8 8 -2 14 2 15 7 0 6 3 15 7
21 4 6 9 25 10 43 1 17 5 31 9 31 7 0 20 79 26 160 2 30 4 60 5 65 3 44 -38
205 -52 205 -6 0 -9 3 -9 8 1 4 1 15 0 26 -1 14 -4 16 -15 7 -11 -9 -12 -7 -9
11 7 37 -123 164 -157 155 -13 -3 -17 0 -13 9 3 8 -1 14 -10 14 -8 0 -17 4
-19 10 -1 5 -34 20 -73 34 -64 22 -70 23 -82 8 -10 -15 -11 -14 -6 6 4 16 1
22 -11 22 -10 0 -14 -5 -11 -10 3 -6 -10 -1 -29 11 -21 12 -36 16 -36 10 0 -9
-5 -9 -20 -1 -11 6 -32 10 -47 10 -15 -1 -52 2 -81 5 -37 5 -58 3 -69 -7 -11
-9 -14 -9 -9 -1 5 10 -11 11 -71 7 -43 -2 -93 -4 -111 -4 -25 1 -32 -3 -26
-12 6 -10 4 -10 -9 0 -9 8 -22 10 -28 6 -7 -4 -24 -8 -38 -9 -18 -1 -26 -7
-25 -18 1 -9 -2 -14 -7 -11 -5 3 -9 13 -10 22 -1 11 -4 8 -9 -8 -5 -17 -8 -19
-9 -7 -1 19 -21 24 -21 5 0 -6 -3 -8 -7 -5 -3 4 -13 1 -21 -6 -13 -10 -14 -9
-8 1 6 10 0 11 -26 6 -18 -3 -38 -7 -45 -8 -7 -1 -15 -5 -19 -8 -9 -9 -34 2
-34 15 0 19 -83 177 -92 177 -5 0 -7 4 -3 9 3 6 -2 14 -11 19 -9 5 -17 13 -17
18 -1 5 -6 8 -10 6 -5 -1 -6 2 -2 8 7 11 -24 70 -37 70 -4 0 -8 7 -8 15 0 8
-3 15 -8 15 -4 0 -12 10 -17 23 -6 12 -17 21 -24 19 -8 -2 -11 3 -8 12 7 16
-16 40 -27 28 -4 -4 -6 0 -4 8 2 8 -2 14 -9 13 -7 -2 -10 3 -7 11 8 21 -14 30
-34 14 -15 -12 -16 -11 -3 5 12 16 11 21 -14 47 -15 16 -31 27 -35 25 -4 -3
-10 5 -13 16 -4 13 -10 18 -18 13 -7 -4 -10 -3 -5 4 3 6 -7 19 -24 28 -16 10
-30 22 -30 27 0 5 -7 6 -16 3 -8 -3 -12 -2 -9 4 3 6 -2 13 -12 17 -10 4 -21
11 -25 17 -5 8 -14 7 -30 -3 -20 -13 -22 -13 -10 1 14 18 1 34 -33 40 -11 1
-25 9 -30 16 -6 7 -24 13 -42 15 -17 1 -29 5 -27 8 2 4 -13 10 -34 15 -20 4
-44 9 -52 11 -19 5 -192 12 -205 8z m206 -32 c13 -16 12 -17 -3 -4 -10 7 -18
15 -18 17 0 8 8 3 21 -13z m-327 -21 c3 -5 -1 -9 -9 -9 -8 0 -12 4 -9 9 3 4 7
8 9 8 2 0 6 -4 9 -8z m163 -17 c0 -8 -4 -12 -9 -9 -5 3 -6 10 -3 15 9 13 12
11 12 -6z m82 2 c8 -10 7 -14 -2 -14 -8 0 -14 6 -14 14 0 7 1 13 2 13 2 0 8
-6 14 -13z m-113 -9 c3 -4 -1 -5 -10 -4 -8 1 -18 5 -22 8 -3 4 1 5 10 4 8 -1
18 -5 22 -8z m183 -2 c9 -11 9 -16 -1 -22 -7 -4 -10 -4 -6 1 4 4 3 14 -3 22
-6 7 -9 13 -6 13 2 0 10 -6 16 -14z m-314 -8 c5 4 5 1 1 -6 -6 -10 -11 -10
-22 -1 -8 6 -14 14 -14 16 0 3 6 0 13 -6 8 -6 18 -7 22 -3z m82 -3 c0 -8 -4
-12 -9 -9 -5 3 -6 10 -3 15 9 13 12 11 12 -6z m319 -10 c1 -8 -1 -17 -5 -19
-4 -3 -7 6 -7 19 0 25 8 25 12 0z m124 9 c0 -8 -19 -13 -24 -6 -3 5 1 9 9 9 8
0 15 -2 15 -3z m-1883 -17 c0 -8 -6 -14 -14 -14 -9 0 -10 4 -2 14 6 7 12 13
14 13 1 0 2 -6 2 -13z m84 -4 c13 -16 12 -17 -3 -4 -10 7 -18 15 -18 17 0 8 8
3 21 -13z m1716 4 c0 -8 -6 -14 -14 -14 -9 0 -10 4 -2 14 6 7 12 13 14 13 1 0
2 -6 2 -13z m-1662 -19 c5 4 5 1 1 -6 -6 -10 -11 -10 -22 -1 -8 6 -14 14 -14
16 0 3 6 0 13 -6 8 -6 18 -7 22 -3z m61 -3 c-1 -8 -5 -17 -8 -21 -5 -4 -4 16
1 34 3 9 9 -1 7 -13z m70 -7 c3 -4 -1 -5 -10 -4 -8 1 -18 5 -22 8 -3 4 1 5 10
4 8 -1 18 -5 22 -8z m54 8 c0 -3 -4 -8 -10 -11 -5 -3 -10 -1 -10 4 0 6 5 11
10 11 6 0 10 -2 10 -4z m120 0 c0 -3 -4 -8 -10 -11 -5 -3 -10 -1 -10 4 0 6 5
11 10 11 6 0 10 -2 10 -4z m830 -6 c12 -8 9 -10 -10 -8 -16 2 -24 -2 -22 -10
1 -8 -2 -11 -8 -7 -8 5 -7 11 1 21 14 16 19 17 39 4z m126 -14 c0 -14 -3 -23
-7 -20 -6 3 -6 22 0 42 3 10 7 -2 7 -22z m428 16 c3 -5 -1 -9 -9 -9 -8 0 -12
4 -9 9 3 4 7 8 9 8 2 0 6 -4 9 -8z m-1344 -6 c0 -2 -8 -10 -17 -17 -16 -13
-17 -12 -4 4 13 16 21 21 21 13z m839 -9 c8 -10 7 -14 -2 -14 -8 0 -14 6 -14
14 0 7 1 13 2 13 2 0 8 -6 14 -13z m38 -2 c0 -8 -4 -12 -9 -9 -5 3 -6 10 -3
15 9 13 12 11 12 -6z m-1557 -1 c0 -8 -19 -13 -24 -6 -3 5 1 9 9 9 8 0 15 -2
15 -3z m37 -17 c1 -11 1 -18 0 -16 -2 2 -8 11 -15 20 -9 12 -9 16 1 16 7 0 14
-9 14 -20z m81 4 c-7 -9 -13 -18 -15 -20 -1 -2 -1 5 0 16 0 11 7 20 14 20 10
0 10 -4 1 -16z m47 9 c-3 -5 -12 -10 -18 -10 -7 0 -6 4 3 10 19 12 23 12 15 0z
m32 -12 c2 -17 0 -19 -7 -8 -5 8 -6 18 -4 22 8 12 10 10 11 -14z m81 2 c-7
-10 -14 -17 -17 -15 -4 4 18 35 25 35 2 0 -1 -9 -8 -20z m80 1 c-7 -9 -13 -18
-15 -20 -1 -2 -1 5 0 16 0 11 7 20 14 20 10 0 10 -4 1 -16z m1046 11 c3 -5 -1
-9 -9 -9 -8 0 -15 4 -15 9 0 4 4 8 9 8 6 0 12 -4 15 -8z m545 -6 c9 -11 9 -16
-1 -22 -7 -4 -10 -4 -6 1 4 4 3 14 -3 22 -6 7 -9 13 -6 13 2 0 10 -6 16 -14z
m-1495 -26 c-6 -6 -10 -3 -10 10 0 13 4 16 10 10 7 -7 7 -13 0 -20z m47 13
c13 -16 12 -17 -3 -4 -10 7 -18 15 -18 17 0 8 8 3 21 -13z m1536 2 c0 -8 -4
-12 -9 -9 -5 3 -6 10 -3 15 9 13 12 11 12 -6z m-2080 -13 c0 -10 -6 -19 -13
-19 -9 0 -9 5 -1 19 7 10 13 18 14 18 1 0 1 -8 0 -18z m843 3 c-5 -7 -8 -14
-5 -17 3 -3 -5 -13 -17 -24 -23 -19 -23 -19 -7 1 9 11 15 27 14 36 -2 9 3 16
11 16 9 0 11 -4 4 -12z m854 4 c3 -3 -5 -5 -19 -5 -13 0 -22 3 -19 7 4 8 30 6
38 -2z m220 3 c3 -5 -1 -9 -9 -9 -8 0 -12 4 -9 9 3 4 7 8 9 8 2 0 6 -4 9 -8z
m223 -7 c0 -8 -4 -12 -9 -9 -4 3 -8 9 -8 15 0 5 4 9 8 9 5 0 9 -7 9 -15z
m-1381 -21 c1 -9 0 -13 -4 -10 -3 4 -7 14 -8 22 -1 9 0 13 4 10 3 -4 7 -14 8
-22z m-826 12 c0 -2 -8 -10 -17 -17 -16 -13 -17 -12 -4 4 13 16 21 21 21 13z
m194 -4 c2 -4 -4 -8 -14 -8 -10 0 -16 4 -14 8 3 4 9 8 14 8 5 0 11 -4 14 -8z
m156 0 c0 -5 -7 -9 -15 -9 -8 0 -12 4 -9 9 3 4 9 8 15 8 5 0 9 -4 9 -8z m231
-15 c-10 -9 -11 -8 -5 6 3 10 9 15 12 12 3 -3 0 -11 -7 -18z m1326 1 c1 -10
-3 -18 -9 -18 -6 0 -8 3 -5 7 4 3 2 11 -3 18 -7 8 -6 12 3 12 7 0 14 -9 14
-19z m-1777 8 c0 -2 -8 -10 -17 -17 -16 -13 -17 -12 -4 4 13 16 21 21 21 13z
m121 -13 c13 -16 12 -17 -3 -4 -10 7 -18 15 -18 17 0 8 8 3 21 -13z m160 0
c13 -16 12 -17 -3 -4 -10 7 -18 15 -18 17 0 8 8 3 21 -13z m235 -9 c1 -9 0
-13 -4 -10 -3 4 -7 14 -8 22 -1 9 0 13 4 10 3 -4 7 -14 8 -22z m120 6 c0 -12
-4 -16 -9 -11 -5 5 -6 14 -3 20 10 15 12 14 12 -9z m269 0 c10 -11 16 -20 13
-20 -3 0 -13 9 -23 20 -10 11 -16 20 -13 20 3 0 13 -9 23 -20z m694 7 c8 -10
7 -14 -2 -14 -8 0 -14 6 -14 14 0 7 1 13 2 13 2 0 8 -6 14 -13z m237 -13 c1
-9 0 -13 -4 -10 -3 4 -7 14 -8 22 -1 9 0 13 4 10 3 -4 7 -14 8 -22z m-2011 6
c-3 -5 -12 -10 -18 -10 -7 0 -6 4 3 10 19 12 23 12 15 0z m595 -15 c14 -19 14
-19 -2 -6 -10 7 -18 18 -18 24 0 6 1 8 3 6 1 -2 9 -13 17 -24z m146 13 c3 -4
-1 -5 -10 -4 -8 1 -18 5 -22 8 -3 4 1 5 10 4 8 -1 18 -5 22 -8z m309 3 c3 -5
2 -12 -3 -15 -5 -3 -9 1 -9 9 0 17 3 19 12 6z m449 1 c3 -5 -1 -9 -9 -9 -8 0
-12 4 -9 9 3 4 7 8 9 8 2 0 6 -4 9 -8z m233 -9 c0 -8 -4 -10 -12 -3 -7 5 -16
6 -20 2 -5 -4 -5 -2 -2 4 9 15 34 13 34 -3z m449 5 c3 -4 -1 -5 -10 -4 -8 1
-18 5 -22 8 -3 4 1 5 10 4 8 -1 18 -5 22 -8z m68 4 c3 -5 -1 -9 -9 -9 -8 0
-12 4 -9 9 3 4 7 8 9 8 2 0 6 -4 9 -8z m-2179 -11 c3 -5 2 -12 -3 -15 -5 -3
-9 1 -9 9 0 17 3 19 12 6z m321 -6 c-1 -8 -5 -17 -8 -21 -5 -4 -4 16 1 34 3 9
9 -1 7 -13z m-352 -3 c2 -4 -4 -8 -14 -8 -10 0 -16 4 -14 8 3 4 9 8 14 8 5 0
11 -4 14 -8z m73 -15 c1 -11 1 -18 0 -16 -2 2 -8 11 -15 20 -9 12 -9 16 1 16
7 0 14 -9 14 -20z m763 11 c0 -4 -4 -8 -9 -8 -6 0 -12 4 -15 8 -3 5 1 9 9 9 8
0 15 -4 15 -9z m271 -5 c13 -16 12 -17 -3 -4 -10 7 -18 15 -18 17 0 8 8 3 21
-13z m280 -6 c-10 -9 -11 -8 -5 6 3 10 9 15 12 12 3 -3 0 -11 -7 -18z m45 -2
c1 -8 -1 -17 -5 -19 -4 -3 -7 6 -7 19 0 25 8 25 12 0z m120 -11 c0 -13 -2 -22
-5 -19 -3 3 -6 17 -7 31 0 13 2 22 5 19 3 -3 6 -17 7 -31z m33 22 c9 -11 9
-16 -1 -22 -7 -4 -10 -4 -6 1 4 4 3 14 -3 22 -6 7 -9 13 -6 13 2 0 10 -6 16
-14z m-875 -25 c-2 -3 -12 3 -22 13 -16 17 -16 18 5 5 12 -7 20 -15 17 -18z
m-217 2 c0 -10 -4 -10 -16 -1 -9 7 -18 13 -20 15 -2 1 5 1 16 0 11 0 20 -7 20
-14z m260 10 c-4 -3 -1 -13 6 -22 11 -14 10 -14 -5 -2 -16 12 -16 31 -1 31 4
0 3 -3 0 -7z m40 -12 c0 -11 -5 -18 -9 -15 -4 3 -5 11 -1 19 7 21 12 19 10 -4z
m81 -2 c9 -12 9 -16 -1 -16 -7 0 -14 9 -14 20 -1 11 -1 18 0 16 2 -2 8 -11 15
-20z m53 4 c13 -17 13 -17 -6 -3 -11 8 -22 16 -24 17 -2 2 0 3 6 3 6 0 17 -8
24 -17z m123 5 c-3 -4 -11 -5 -19 -1 -21 7 -19 12 4 10 11 0 18 -5 15 -9z
m120 -4 c3 -8 2 -12 -4 -9 -6 3 -10 10 -10 16 0 14 7 11 14 -7z m183 9 c-4 -3
-1 -13 6 -22 11 -14 10 -14 -5 -2 -16 12 -16 31 -1 31 4 0 3 -3 0 -7z m333 1
c0 -8 -19 -13 -24 -6 -3 5 1 9 9 9 8 0 15 -2 15 -3z m284 -2 c3 -5 -1 -9 -9
-9 -8 0 -12 4 -9 9 3 4 7 8 9 8 2 0 6 -4 9 -8z m340 0 c3 -5 -1 -9 -9 -9 -8 0
-12 4 -9 9 3 4 7 8 9 8 2 0 6 -4 9 -8z m-598 -28 c1 -9 0 -13 -4 -10 -3 4 -7
14 -8 22 -1 9 0 13 4 10 3 -4 7 -14 8 -22z m-1796 2 c-7 -7 -13 -7 -20 0 -6 6
-3 10 10 10 13 0 16 -4 10 -10z m197 -1 c0 -8 -4 -12 -9 -9 -4 3 -8 9 -8 15 0
5 4 9 8 9 5 0 9 -7 9 -15z m42 -19 c-3 -3 -11 5 -18 17 -13 21 -12 21 5 5 10
-10 16 -20 13 -22z m79 14 c-7 -10 -14 -17 -17 -15 -4 4 18 35 25 35 2 0 -1
-9 -8 -20z m81 -14 c-3 -3 -11 5 -18 17 -13 21 -12 21 5 5 10 -10 16 -20 13
-22z m131 29 c0 -1 -12 -12 -27 -26 -20 -17 -23 -18 -10 -3 9 11 15 23 12 26
-3 2 2 5 10 5 8 0 15 -1 15 -2z m701 -12 c13 -16 12 -17 -3 -4 -17 13 -22 21
-14 21 2 0 10 -8 17 -17z m84 7 c3 -5 1 -10 -4 -10 -6 0 -11 5 -11 10 0 6 2
10 4 10 3 0 8 -4 11 -10z m170 0 c3 -6 -1 -7 -9 -4 -18 7 -21 14 -7 14 6 0 13
-4 16 -10z m351 -14 c1 -7 -4 -13 -12 -13 -9 0 -11 4 -4 12 5 7 8 15 5 18 -3
4 -2 5 2 2 4 -3 8 -11 9 -19z m44 12 c0 -4 -4 -8 -9 -8 -6 0 -12 4 -15 8 -3 5
1 9 9 9 8 0 15 -4 15 -9z m277 -10 c1 -10 -3 -18 -9 -18 -6 0 -8 3 -5 7 4 3 2
11 -3 18 -7 8 -6 12 3 12 7 0 14 -9 14 -19z m79 -12 c0 -13 -5 -23 -12 -23 -9
0 -10 5 -5 11 5 6 7 19 5 29 -1 11 0 16 4 12 3 -3 7 -16 8 -29z m33 20 c9 -11
9 -16 -1 -22 -7 -4 -10 -4 -6 1 4 4 3 14 -3 22 -6 7 -9 13 -6 13 2 0 10 -6 16
-14z m-2133 -11 c-1 -8 -5 -17 -8 -21 -5 -4 -4 16 1 34 3 9 9 -1 7 -13z m522
-10 c-3 -3 -9 2 -12 12 -6 14 -5 15 5 6 7 -7 10 -15 7 -18z m78 10 c-1 -8 -5
-17 -8 -21 -5 -4 -4 16 1 34 3 9 9 -1 7 -13z m397 0 c-3 -9 -8 -14 -10 -11 -3
3 -2 9 2 15 9 16 15 13 8 -4z m64 1 c0 -15 -21 -16 -34 -1 -4 4 -3 5 4 1 6 -3
14 -2 18 4 8 14 12 13 12 -4z m1179 -12 c1 -9 0 -13 -4 -10 -3 4 -7 14 -8 22
-1 9 0 13 4 10 3 -4 7 -14 8 -22z m125 11 c9 2 16 -3 16 -11 0 -8 -4 -10 -11
-5 -6 5 -18 7 -27 6 -9 -2 -16 3 -16 11 0 8 4 10 11 5 6 -5 18 -7 27 -6z
m-2564 -10 c0 -8 -4 -12 -9 -9 -5 3 -6 10 -3 15 9 13 12 11 12 -6z m93 5 c-8
-5 -19 -10 -25 -10 -5 0 -3 5 5 10 8 5 20 10 25 10 6 0 3 -5 -5 -10z m1246
-16 c0 -20 -11 -25 -11 -6 0 4 -3 12 -7 18 -4 6 -1 11 5 11 7 0 13 -11 13 -23z
m309 17 c-9 -8 -36 -10 -30 -2 2 4 11 8 20 8 8 0 13 -3 10 -6z m369 1 c3 -5
-1 -9 -9 -9 -8 0 -12 4 -9 9 3 4 7 8 9 8 2 0 6 -4 9 -8z m242 -7 c-3 -23 -12
-26 -13 -5 -1 11 2 20 7 20 4 0 7 -7 6 -15z m-1556 1 c0 -2 -8 -10 -17 -17
-16 -13 -17 -12 -4 4 13 16 21 21 21 13z m36 -21 c-1 -8 -5 -17 -8 -21 -5 -4
-4 16 1 34 3 9 9 -1 7 -13z m203 -19 c-3 -3 -11 5 -18 17 -13 21 -12 21 5 5
10 -10 16 -20 13 -22z m205 26 c2 -4 -4 -8 -14 -8 -10 0 -16 4 -14 8 3 4 9 8
14 8 5 0 11 -4 14 -8z m160 0 c2 -4 -4 -8 -14 -8 -10 0 -16 4 -14 8 3 4 9 8
14 8 5 0 11 -4 14 -8z m-1024 -6 c0 -2 -8 -10 -17 -17 -16 -13 -17 -12 -4 4
13 16 21 21 21 13z m374 -25 c-2 -3 -12 3 -22 13 -16 17 -16 18 5 5 12 -7 20
-15 17 -18z m416 14 c-7 -8 -17 -15 -23 -15 -6 0 -2 7 9 15 25 19 30 19 14 0z
m127 2 c0 -7 -9 -14 -20 -14 -19 -2 -19 -2 -1 12 11 8 19 15 20 15 0 0 1 -6 1
-13z m62 -14 c2 -1 -5 -1 -16 0 -11 0 -20 7 -20 14 0 10 4 10 16 1 9 -7 18
-13 20 -15z m514 14 c4 3 7 1 7 -5 0 -6 -8 -10 -18 -9 -10 0 -19 7 -19 14 0 9
4 10 12 3 7 -5 15 -7 18 -3z m227 -8 c0 -5 -4 -9 -8 -9 -5 0 -9 7 -9 15 0 8 4
12 9 9 4 -3 8 -9 8 -15z m537 6 c0 -8 -4 -12 -9 -9 -5 3 -6 10 -3 15 9 13 12
11 12 -6z m-2478 2 c-2 -2 -11 -8 -20 -15 -12 -9 -16 -9 -16 1 0 7 9 14 20 14
11 1 18 1 16 0z m98 -14 c0 -10 -4 -10 -16 -1 -9 7 -18 13 -20 15 -2 1 5 1 16
0 11 0 20 -7 20 -14z m62 14 c-2 -2 -11 -8 -20 -15 -12 -9 -16 -9 -16 1 0 7 9
14 20 14 11 1 18 1 16 0z m175 -5 c2 -4 -5 -9 -17 -9 -17 -2 -19 0 -7 7 18 12
18 12 24 2z m1643 -7 c0 -8 -4 -12 -9 -9 -4 3 -8 9 -8 15 0 5 4 9 8 9 5 0 9
-7 9 -15z m397 4 c3 -3 -4 -5 -14 -6 -11 -1 -20 2 -20 7 0 8 25 8 34 -1z
m-1461 -14 c-3 -9 -8 -14 -10 -11 -3 3 -2 9 2 15 9 16 15 13 8 -4z m1526 2 c8
-10 7 -14 -2 -14 -8 0 -14 6 -14 14 0 7 1 13 2 13 2 0 8 -6 14 -13z m-2399
-11 c-7 -7 -13 -7 -20 0 -6 6 -3 10 10 10 13 0 16 -4 10 -10z m155 -4 c-3 -3
-11 0 -18 7 -9 10 -8 11 6 5 10 -3 15 -9 12 -12z m525 3 c-10 -12 -10 -18 1
-32 12 -17 12 -17 -6 -1 -15 14 -16 20 -5 32 7 9 15 16 17 16 3 0 0 -7 -7 -15z
m44 7 c3 -5 -1 -9 -9 -9 -8 0 -12 4 -9 9 3 4 7 8 9 8 2 0 6 -4 9 -8z m-827
-17 c0 -8 -4 -12 -9 -9 -5 3 -6 10 -3 15 9 13 12 11 12 -6z m923 11 c0 -2 -8
-10 -17 -17 -16 -13 -17 -12 -4 4 13 16 21 21 21 13z m234 -26 c-6 -6 -10 -3
-10 10 0 13 4 16 10 10 7 -7 7 -13 0 -20z m123 15 c0 -8 -4 -15 -9 -15 -10 0
-11 14 -1 23 9 10 10 9 10 -8z m-1243 -3 c3 -5 -1 -9 -9 -9 -8 0 -12 4 -9 9 3
4 7 8 9 8 2 0 6 -4 9 -8z m292 -4 c3 -4 -1 -5 -10 -4 -8 1 -18 5 -22 8 -3 4 1
5 10 4 8 -1 18 -5 22 -8z m39 2 c-3 -5 -12 -10 -18 -10 -7 0 -6 4 3 10 19 12
23 12 15 0z m110 -8 c-3 -3 -11 0 -18 7 -9 10 -8 11 6 5 10 -3 15 -9 12 -12z
m50 9 c-9 -8 -36 -10 -30 -2 2 4 11 8 20 8 8 0 13 -3 10 -6z m1499 -3 c-3 -4
-9 -8 -15 -8 -5 0 -9 4 -9 8 0 5 7 9 15 9 8 0 12 -4 9 -9z m450 4 c3 -5 -1 -9
-9 -9 -8 0 -12 4 -9 9 3 4 7 8 9 8 2 0 6 -4 9 -8z m-2373 -19 c13 -16 12 -17
-3 -4 -17 13 -22 21 -14 21 2 0 10 -8 17 -17z m159 13 c0 -2 -8 -10 -17 -17
-16 -13 -17 -12 -4 4 13 16 21 21 21 13z m555 -5 c3 -5 2 -12 -3 -15 -5 -3 -9
1 -9 9 0 17 3 19 12 6z m161 -17 c1 -9 0 -13 -4 -10 -3 4 -7 14 -8 22 -1 9 0
13 4 10 3 -4 7 -14 8 -22z m841 11 c0 -8 -4 -12 -9 -9 -5 3 -6 10 -3 15 9 13
12 11 12 -6z m39 -11 c1 -9 0 -13 -4 -10 -3 4 -7 14 -8 22 -1 9 0 13 4 10 3
-4 7 -14 8 -22z m80 1 c1 -8 -1 -17 -5 -19 -4 -3 -7 6 -7 19 0 25 8 25 12 0z
m681 10 c0 -8 -4 -12 -9 -9 -5 3 -6 10 -3 15 9 13 12 11 12 -6z m39 -11 c1 -9
0 -13 -4 -10 -3 4 -7 14 -8 22 -1 9 0 13 4 10 3 -4 7 -14 8 -22z m-2725 -7
c-10 -9 -11 -8 -5 6 3 10 9 15 12 12 3 -3 0 -11 -7 -18z m686 0 c1 -11 1 -18
0 -16 -2 2 -8 11 -15 20 -9 12 -9 16 1 16 7 0 14 -9 14 -20z m240 0 c1 -11 1
-18 0 -16 -2 2 -8 11 -15 20 -9 12 -9 16 1 16 7 0 14 -9 14 -20z m928 13 c3
-6 -1 -7 -9 -4 -18 7 -21 14 -7 14 6 0 13 -4 16 -10z m400 0 c-3 -5 -12 -10
-18 -10 -7 0 -6 4 3 10 19 12 23 12 15 0z m199 2 c3 -5 -1 -9 -9 -9 -8 0 -15
4 -15 9 0 4 4 8 9 8 6 0 12 -4 15 -8z m202 -4 c3 -4 -1 -5 -10 -4 -8 1 -18 5
-22 8 -3 4 1 5 10 4 8 -1 18 -5 22 -8z m-2585 -15 c13 -16 12 -17 -3 -4 -10 7
-18 15 -18 17 0 8 8 3 21 -13z m35 -3 c0 -12 -4 -16 -9 -11 -5 5 -6 14 -3 20
10 15 12 14 12 -9z m152 11 c16 12 16 12 0 -6 -18 -19 -18 -19 -35 0 -17 18
-17 18 0 6 14 -11 20 -11 35 0z m328 -11 c0 -12 -4 -16 -9 -11 -5 5 -6 14 -3
20 10 15 12 14 12 -9z m560 0 c0 -12 -4 -16 -9 -11 -5 5 -6 14 -3 20 10 15 12
14 12 -9z m1139 11 c3 -5 2 -12 -3 -15 -5 -3 -9 1 -9 9 0 17 3 19 12 6z m105
5 c0 -2 -6 -9 -14 -15 -11 -9 -16 -9 -22 0 -4 7 -3 9 4 5 6 -3 13 -2 17 4 6
10 15 14 15 6z m216 -20 c0 -14 -3 -23 -7 -20 -6 3 -6 22 0 42 3 10 7 -2 7
-22z m-2145 -3 c13 -17 13 -17 -6 -3 -11 8 -22 16 -24 17 -2 2 0 3 6 3 6 0 17
-8 24 -17z m323 9 c2 -4 -5 -9 -17 -9 -17 -2 -19 0 -7 7 18 12 18 12 24 2z
m483 -9 c0 -10 -4 -10 -16 -1 -9 7 -18 13 -20 15 -2 1 5 1 16 0 11 0 20 -7 20
-14z m62 14 c-2 -2 -11 -8 -20 -15 -12 -9 -16 -9 -16 1 0 7 9 14 20 14 11 1
18 1 16 0z m646 -6 c-9 -8 -36 -10 -30 -2 2 4 11 8 20 8 8 0 13 -3 10 -6z
m115 1 c0 -5 -7 -9 -15 -9 -8 0 -12 4 -9 9 3 4 9 8 15 8 5 0 9 -4 9 -8z m40 2
c0 -8 -19 -13 -24 -6 -3 5 1 9 9 9 8 0 15 -2 15 -3z m85 -3 c-9 -8 -36 -10
-30 -2 2 4 11 8 20 8 8 0 13 -3 10 -6z m-2245 -26 c-10 -12 -10 -18 1 -32 12
-17 12 -17 -6 -1 -15 14 -16 20 -5 32 7 9 15 16 17 16 3 0 0 -7 -7 -15z m441
2 c-6 -8 -8 -16 -5 -20 3 -3 -2 -4 -13 -3 -10 2 -25 -2 -33 -8 -13 -10 -13 -9
-1 6 7 10 17 16 21 13 4 -3 13 2 20 10 7 8 15 15 17 15 3 0 0 -6 -6 -13z m129
9 c0 -2 -8 -10 -17 -17 -16 -13 -17 -12 -4 4 13 16 21 21 21 13z m430 0 c0 -2
-7 -7 -16 -10 -8 -3 -12 -2 -9 4 6 10 25 14 25 6z m118 -16 c-7 -10 -14 -17
-17 -15 -4 4 18 35 25 35 2 0 -1 -9 -8 -20z m132 16 c0 -2 -8 -10 -17 -17 -16
-13 -17 -12 -4 4 13 16 21 21 21 13z m141 -13 c13 -16 12 -17 -3 -4 -17 13
-22 21 -14 21 2 0 10 -8 17 -17z m-1277 -23 c-6 -6 -10 -3 -10 10 0 13 4 16
10 10 7 -7 7 -13 0 -20z m586 26 c0 -2 -6 -9 -14 -15 -11 -9 -16 -9 -22 0 -4
7 -3 9 4 5 6 -3 13 -2 17 4 6 10 15 14 15 6z m76 -22 c1 -9 0 -13 -4 -10 -3 4
-7 14 -8 22 -1 9 0 13 4 10 3 -4 7 -14 8 -22z m1199 17 c3 -5 2 -12 -3 -15 -5
-3 -9 1 -9 9 0 17 3 19 12 6z m241 -17 c1 -9 0 -13 -4 -10 -3 4 -7 14 -8 22
-1 9 0 13 4 10 3 -4 7 -14 8 -22z m-2285 -1 c13 -16 12 -17 -3 -4 -10 7 -18
15 -18 17 0 8 8 3 21 -13z m34 7 c3 -6 -1 -7 -9 -4 -18 7 -21 14 -7 14 6 0 13
-4 16 -10z m390 2 c-3 -3 0 -11 6 -19 17 -20 5 -16 -14 5 -15 16 -15 19 -2 19
8 0 13 -3 10 -5z m179 -8 c3 -8 2 -12 -4 -9 -6 3 -10 10 -10 16 0 14 7 11 14
-7z m77 -7 c-10 -9 -11 -8 -5 6 3 10 9 15 12 12 3 -3 0 -11 -7 -18z m43 7 c3
-8 2 -12 -4 -9 -6 3 -10 10 -10 16 0 14 7 11 14 -7z m357 -1 c13 -16 12 -17
-3 -4 -17 13 -22 21 -14 21 2 0 10 -8 17 -17z m200 0 c13 -16 12 -17 -3 -4
-10 7 -18 15 -18 17 0 8 8 3 21 -13z m80 -6 c-10 -9 -11 -8 -5 6 3 10 9 15 12
12 3 -3 0 -11 -7 -18z m653 15 c3 -5 -1 -9 -9 -9 -8 0 -12 4 -9 9 3 4 7 8 9 8
2 0 6 -4 9 -8z m76 -1 c0 -6 -4 -12 -8 -15 -5 -3 -9 1 -9 9 0 8 4 15 9 15 4 0
8 -4 8 -9z m120 0 c0 -6 -4 -12 -8 -15 -5 -3 -9 1 -9 9 0 8 4 15 9 15 4 0 8
-4 8 -9z m120 0 c0 -6 -4 -12 -8 -15 -5 -3 -9 1 -9 9 0 8 4 15 9 15 4 0 8 -4
8 -9z m85 0 c-9 -8 -36 -10 -30 -2 2 4 11 8 20 8 8 0 13 -3 10 -6z m109 1 c3
-5 -1 -9 -9 -9 -8 0 -12 4 -9 9 3 4 7 8 9 8 2 0 6 -4 9 -8z m120 0 c3 -5 -1
-9 -9 -9 -8 0 -12 4 -9 9 3 4 7 8 9 8 2 0 6 -4 9 -8z m226 2 c0 -8 -19 -13
-24 -6 -3 5 1 9 9 9 8 0 15 -2 15 -3z m-324 -38 c0 -14 -3 -23 -7 -20 -6 3 -6
22 0 42 3 10 7 -2 7 -22z m121 9 c0 -8 -4 -12 -9 -9 -5 3 -6 10 -3 15 9 13 12
11 12 -6z m-620 -10 c0 -8 -4 -12 -9 -9 -5 3 -6 10 -3 15 9 13 12 11 12 -6z
m-1686 -12 c13 -16 12 -17 -3 -4 -15 11 -21 11 -35 0 -16 -13 -17 -12 -4 4 7
9 17 17 21 17 4 0 14 -8 21 -17z m266 -1 c0 -10 -6 -19 -13 -19 -9 0 -9 5 -1
19 7 10 13 18 14 18 1 0 1 -8 0 -18z m100 1 c0 -10 -4 -10 -16 -1 -9 7 -18 13
-20 15 -2 1 5 1 16 0 11 0 20 -7 20 -14z m129 -11 c-17 -16 -18 -16 -5 5 7 12
15 20 18 17 3 -2 -3 -12 -13 -22z m108 16 c-3 -4 -11 -5 -19 -1 -21 7 -19 12
4 10 11 0 18 -5 15 -9z m65 9 c-2 -2 -11 -8 -20 -15 -12 -9 -16 -9 -16 1 0 7
9 14 20 14 11 1 18 1 16 0z m67 -25 c-17 -16 -18 -16 -5 5 7 12 15 20 18 17 3
-2 -3 -12 -13 -22z m173 25 c-2 -2 -11 -8 -20 -15 -12 -9 -16 -9 -16 1 0 7 9
14 20 14 11 1 18 1 16 0z m79 -18 c9 -12 9 -16 -1 -16 -7 0 -14 9 -14 20 -1
11 -1 18 0 16 2 -2 8 -11 15 -20z m762 9 c0 -4 -4 -8 -9 -8 -6 0 -12 4 -15 8
-3 5 1 9 9 9 8 0 15 -4 15 -9z m124 4 c3 -5 -1 -9 -9 -9 -8 0 -12 4 -9 9 3 4
7 8 9 8 2 0 6 -4 9 -8z m38 -6 c-4 -6 -7 -14 -7 -18 0 -19 -11 -14 -11 6 0 12
6 23 13 23 6 0 9 -5 5 -11z m432 6 c3 -5 -1 -9 -9 -9 -8 0 -12 4 -9 9 3 4 7 8
9 8 2 0 6 -4 9 -8z m83 1 c-4 -3 -1 -13 6 -22 11 -14 10 -14 -5 -2 -16 12 -16
31 -1 31 4 0 3 -3 0 -7z m-2679 -28 c-3 -3 -9 2 -12 12 -6 14 -5 15 5 6 7 -7
10 -15 7 -18z m398 -1 c1 -9 0 -13 -4 -10 -3 4 -7 14 -8 22 -1 9 0 13 4 10 3
-4 7 -14 8 -22z m320 11 c-1 -8 -5 -17 -8 -21 -5 -4 -4 16 1 34 3 9 9 -1 7
-13z m-546 1 c0 -2 -8 -10 -17 -17 -16 -13 -17 -12 -4 4 13 16 21 21 21 13z
m270 -10 c-7 -7 -13 -7 -20 0 -6 6 -3 10 10 10 13 0 16 -4 10 -10z m34 5 c3
-5 -2 -15 -12 -22 -15 -12 -16 -12 -5 2 7 9 10 19 6 22 -3 4 -4 7 0 7 3 0 8
-4 11 -9z m206 -5 c-7 -7 -13 -7 -20 0 -6 6 -3 10 10 10 13 0 16 -4 10 -10z
m275 -4 c-3 -3 -11 0 -18 7 -9 10 -8 11 6 5 10 -3 15 -9 12 -12z m1290 8 c-3
-5 -12 -10 -18 -10 -7 0 -6 4 3 10 19 12 23 12 15 0z m32 -10 c1 -11 -2 -20
-7 -20 -6 0 -7 17 -1 38 3 8 7 -1 8 -18z m208 11 c-9 -8 -36 -10 -30 -2 2 4
11 8 20 8 8 0 13 -3 10 -6z m32 -6 c0 -8 -4 -12 -9 -9 -5 3 -6 10 -3 15 9 13
12 11 12 -6z m240 -7 c1 -10 -3 -18 -9 -18 -6 0 -8 3 -5 7 4 3 2 11 -3 18 -7
8 -6 12 3 12 7 0 14 -9 14 -19z m-2783 -18 c-6 -6 -10 -3 -10 10 0 13 4 16 10
10 7 -7 7 -13 0 -20z m82 4 c1 -9 0 -13 -4 -10 -3 4 -7 14 -8 22 -1 9 0 13 4
10 3 -4 7 -14 8 -22z m797 11 c-3 -9 -8 -14 -10 -11 -3 3 -2 9 2 15 9 16 15
13 8 -4z m1743 3 c5 4 5 3 1 -2 -12 -15 -34 -15 -34 0 0 9 4 11 12 4 7 -5 16
-6 21 -2z m-2490 -10 c3 -4 -1 -5 -10 -4 -8 1 -18 5 -22 8 -3 4 1 5 10 4 8 -1
18 -5 22 -8z m108 -4 c3 -8 2 -12 -4 -9 -6 3 -10 10 -10 16 0 14 7 11 14 -7z
m810 5 c3 -3 -5 -5 -19 -5 -13 0 -22 3 -19 7 4 8 30 6 38 -2z m106 7 c0 -2 -8
-10 -17 -17 -16 -13 -17 -12 -4 4 13 16 21 21 21 13z m-170 -10 c0 -2 -8 -10
-17 -17 -16 -13 -17 -12 -4 4 13 16 21 21 21 13z m-1036 -18 c-3 -4 -9 -8 -15
-8 -5 0 -9 4 -9 8 0 5 7 9 15 9 8 0 12 -4 9 -9z m467 -11 c-10 -9 -11 -8 -5 6
3 10 9 15 12 12 3 -3 0 -11 -7 -18z m334 14 c-9 -8 -36 -10 -30 -2 2 4 11 8
20 8 8 0 13 -3 10 -6z m81 -3 c3 -4 -1 -5 -10 -4 -8 1 -18 5 -22 8 -3 4 1 5
10 4 8 -1 18 -5 22 -8z m1234 2 c0 -5 -2 -10 -4 -10 -3 0 -8 5 -11 10 -3 6 -1
10 4 10 6 0 11 -4 11 -10z m84 2 c3 -5 -1 -9 -9 -9 -8 0 -15 4 -15 9 0 4 4 8
9 8 6 0 12 -4 15 -8z m46 2 c0 -8 -19 -13 -24 -6 -3 5 1 9 9 9 8 0 15 -2 15
-3z m26 -18 c0 -14 -3 -23 -7 -20 -6 3 -6 22 0 42 3 10 7 -2 7 -22z m-2082
-15 c-2 -3 -12 3 -22 13 -16 17 -16 18 5 5 12 -7 20 -15 17 -18z m165 2 c2 -1
-5 -1 -16 0 -11 0 -20 7 -20 14 0 10 4 10 16 1 9 -7 18 -13 20 -15z m182 10
c13 -16 12 -17 -3 -4 -10 7 -18 15 -18 17 0 8 8 3 21 -13z m427 8 c16 12 16
12 0 -6 -18 -19 -18 -19 -35 0 -17 18 -17 18 0 6 14 -11 20 -11 35 0z m126
-21 c-6 -6 -10 -3 -10 10 0 13 4 16 10 10 7 -7 7 -13 0 -20z m1323 17 c0 -8
-6 -14 -14 -14 -9 0 -10 4 -2 14 6 7 12 13 14 13 1 0 2 -6 2 -13z m480 0 c0
-8 -6 -14 -14 -14 -9 0 -10 4 -2 14 6 7 12 13 14 13 1 0 2 -6 2 -13z m-2940
-15 c0 -10 -6 -19 -13 -19 -9 0 -9 5 -1 19 7 10 13 18 14 18 1 0 1 -8 0 -18z
m76 3 c4 -8 3 -16 -1 -19 -4 -3 -9 4 -9 15 -2 23 3 25 10 4z m261 7 c2 -4 -5
-9 -17 -9 -17 -2 -19 0 -7 7 18 12 18 12 24 2z m345 5 c-2 -1 -13 -9 -24 -17
-19 -14 -19 -14 -6 3 7 9 18 17 24 17 6 0 8 -1 6 -3z m77 -23 c1 -9 0 -13 -4
-10 -3 4 -7 14 -8 22 -1 9 0 13 4 10 3 -4 7 -14 8 -22z m575 9 c13 -17 13 -17
-6 -3 -11 8 -22 16 -24 17 -2 2 0 3 6 3 6 0 17 -8 24 -17z m1249 8 c0 -6 -4
-12 -8 -15 -5 -3 -9 1 -9 9 0 8 4 15 9 15 4 0 8 -4 8 -9z m-1975 -21 c-3 -5
-12 -10 -18 -10 -7 0 -6 4 3 10 19 12 23 12 15 0z m106 -7 c13 -16 12 -17 -3
-4 -10 7 -18 15 -18 17 0 8 8 3 21 -13z m480 0 c13 -16 12 -17 -3 -4 -10 7
-18 15 -18 17 0 8 8 3 21 -13z m87 -3 c-7 -10 -14 -17 -17 -15 -4 4 18 35 25
35 2 0 -1 -9 -8 -20z m1002 8 c0 -4 -4 -8 -9 -8 -6 0 -12 4 -15 8 -3 5 1 9 9
9 8 0 15 -4 15 -9z m397 -3 c0 -8 -4 -12 -9 -9 -5 3 -6 10 -3 15 9 13 12 11
12 -6z m39 -9 c1 -7 -4 -13 -12 -13 -9 0 -11 4 -4 12 5 7 8 15 5 18 -3 4 -2 5
2 2 4 -3 8 -11 9 -19z m41 7 c0 -9 -4 -10 -14 -2 -7 6 -13 12 -13 14 0 1 6 2
13 2 8 0 14 -6 14 -14z m-2580 -8 c0 -8 -4 -12 -9 -9 -5 3 -6 10 -3 15 9 13
12 11 12 -6z m983 11 c0 -2 -6 -9 -14 -15 -11 -9 -16 -9 -22 0 -4 7 -3 9 4 5
6 -3 13 -2 17 4 6 10 15 14 15 6z m-890 -16 c8 -5 11 -10 5 -10 -5 0 -17 5
-25 10 -8 5 -10 10 -5 10 6 0 17 -5 25 -10z m555 0 c3 -6 -1 -7 -9 -4 -18 7
-21 14 -7 14 6 0 13 -4 16 -10z m150 -2 c3 -3 -8 -4 -25 -3 -38 3 -47 -10 -24
-38 l18 -22 -24 22 c-18 17 -21 25 -12 36 12 14 55 17 67 5z m236 -11 c-10 -9
-11 -8 -5 6 3 10 9 15 12 12 3 -3 0 -11 -7 -18z m120 0 c-10 -9 -11 -8 -5 6 3
10 9 15 12 12 3 -3 0 -11 -7 -18z m1503 15 c3 -5 -1 -9 -9 -9 -8 0 -12 4 -9 9
3 4 7 8 9 8 2 0 6 -4 9 -8z m-2734 -45 c-24 -22 -24 -22 -6 0 10 12 15 27 11
35 -7 10 -5 11 6 0 11 -10 9 -16 -11 -35z m657 28 c0 -8 -4 -12 -9 -9 -5 3 -6
10 -3 15 9 13 12 11 12 -6z m2257 -14 c-2 -3 -12 3 -22 13 -16 17 -16 18 5 5
12 -7 20 -15 17 -18z m-3016 0 c-7 -9 -13 -18 -15 -20 -1 -2 -1 5 0 16 0 11 7
20 14 20 10 0 10 -4 1 -16z m246 11 c2 -4 -4 -8 -14 -8 -10 0 -16 4 -14 8 3 4
9 8 14 8 5 0 11 -4 14 -8z m560 0 c2 -4 -4 -8 -14 -8 -10 0 -16 4 -14 8 3 4 9
8 14 8 5 0 11 -4 14 -8z m233 -15 c1 -11 1 -18 0 -16 -2 2 -8 11 -15 20 -9 12
-9 16 1 16 7 0 14 -9 14 -20z m1287 15 c3 -5 -1 -9 -9 -9 -8 0 -15 4 -15 9 0
4 4 8 9 8 6 0 12 -4 15 -8z m41 -2 c-3 -5 -12 -10 -18 -10 -7 0 -6 4 3 10 19
12 23 12 15 0z m-2168 -45 c0 -8 -4 -12 -9 -9 -5 4 -7 9 -4 12 3 3 -2 15 -11
26 -18 21 -18 21 3 3 11 -9 21 -24 21 -32z m383 41 c0 -2 -8 -10 -17 -17 -16
-13 -17 -12 -4 4 13 16 21 21 21 13z m557 -9 c0 -7 -9 -14 -20 -14 -19 -2 -19
-2 -1 12 11 8 19 15 20 15 0 0 1 -6 1 -13z m1683 -8 c0 -5 -4 -9 -8 -9 -5 0
-9 7 -9 15 0 8 4 12 9 9 4 -3 8 -9 8 -15z m-2423 -7 c0 -10 -6 -19 -13 -19 -9
0 -9 5 -1 19 7 10 13 18 14 18 1 0 1 -8 0 -18z m240 0 c0 -10 -6 -19 -13 -19
-9 0 -9 5 -1 19 7 10 13 18 14 18 1 0 1 -8 0 -18z m100 1 c0 -10 -4 -10 -16
-1 -9 7 -18 13 -20 15 -2 1 5 1 16 0 11 0 20 -7 20 -14z m104 4 c-6 -8 -8 -16
-5 -19 3 -3 1 -9 -4 -12 -6 -3 -9 0 -8 6 2 16 15 38 23 38 3 0 0 -6 -6 -13z
m453 5 c2 -4 -5 -9 -17 -9 -17 -2 -19 0 -7 7 18 12 18 12 24 2z m50 0 c3 -5
-1 -9 -9 -9 -8 0 -12 4 -9 9 3 4 7 8 9 8 2 0 6 -4 9 -8z m1053 -7 c0 -8 -4
-12 -9 -9 -5 3 -6 10 -3 15 9 13 12 11 12 -6z m60 0 c0 -8 -4 -12 -9 -9 -4 3
-8 9 -8 15 0 5 4 9 8 9 5 0 9 -7 9 -15z m60 0 c0 -8 -4 -12 -9 -9 -5 3 -6 10
-3 15 9 13 12 11 12 -6z m129 3 c3 -4 -1 -5 -10 -4 -8 1 -18 5 -22 8 -3 4 1 5
10 4 8 -1 18 -5 22 -8z m211 -3 c0 -8 -4 -12 -9 -9 -4 3 -8 9 -8 15 0 5 4 9 8
9 5 0 9 -7 9 -15z m-2537 -20 c-10 -12 -10 -18 1 -32 12 -17 12 -17 -6 -1 -15
14 -16 20 -5 32 7 9 15 16 17 16 3 0 0 -7 -7 -15z m35 6 c3 -5 2 -12 -3 -15
-5 -3 -9 1 -9 9 0 17 3 19 12 6z m245 5 c0 -3 -4 -8 -10 -11 -5 -3 -10 -1 -10
4 0 6 5 11 10 11 6 0 10 -2 10 -4z m85 -5 c-9 -8 -36 -10 -30 -2 2 4 11 8 20
8 8 0 13 -3 10 -6z m513 -11 c-7 -10 -14 -17 -17 -15 -4 4 18 35 25 35 2 0 -1
-9 -8 -20z m1162 10 c0 -5 -5 -10 -11 -10 -5 0 -7 5 -4 10 3 6 8 10 11 10 2 0
4 -4 4 -10z m-1824 -15 c-1 -8 -5 -17 -8 -21 -5 -4 -4 16 1 34 3 9 9 -1 7 -13z
m752 -2 c-8 -10 -14 -28 -13 -41 1 -13 -1 -25 -5 -27 -13 -8 -5 52 9 69 7 9
16 16 19 16 3 0 -2 -8 -10 -17z m1369 4 c0 -8 -6 -14 -14 -14 -9 0 -10 4 -2
14 6 7 12 13 14 13 1 0 2 -6 2 -13z m-2577 -22 c14 -19 14 -19 -2 -6 -10 7
-18 18 -18 24 0 6 1 8 3 6 1 -2 9 -13 17 -24z m204 17 c2 -4 -4 -8 -14 -8 -10
0 -16 4 -14 8 3 4 9 8 14 8 5 0 11 -4 14 -8z m221 -1 c-9 -8 -36 -10 -30 -2 2
4 11 8 20 8 8 0 13 -3 10 -6z m261 -3 c3 -4 -1 -5 -10 -4 -8 1 -18 5 -22 8 -3
4 1 5 10 4 8 -1 18 -5 22 -8z m180 -16 c-17 -16 -18 -16 -5 5 7 12 15 20 18
17 3 -2 -3 -12 -13 -22z m1908 17 c3 -3 -4 -5 -14 -6 -11 -1 -20 2 -20 7 0 8
25 8 34 -1z m176 5 c0 -8 -19 -13 -24 -6 -3 5 1 9 9 9 8 0 15 -2 15 -3z
m-1792 -29 c-3 -3 -9 2 -12 12 -6 14 -5 15 5 6 7 -7 10 -15 7 -18z m1518 -1
c1 -9 0 -13 -4 -10 -3 4 -7 14 -8 22 -1 9 0 13 4 10 3 -4 7 -14 8 -22z m240 1
c1 -8 -1 -17 -5 -19 -4 -3 -7 6 -7 19 0 25 8 25 12 0z m-2871 5 c-3 -5 -12
-10 -18 -10 -7 0 -6 4 3 10 19 12 23 12 15 0z m32 -12 c2 -17 0 -19 -7 -8 -5
8 -6 18 -4 22 8 12 10 10 11 -14z m49 10 c3 -4 -1 -5 -10 -4 -8 1 -18 5 -22 8
-3 4 1 5 10 4 8 -1 18 -5 22 -8z m159 2 c-3 -5 -12 -10 -18 -10 -7 0 -6 4 3
10 19 12 23 12 15 0z m32 -12 c2 -17 0 -19 -7 -8 -5 8 -6 18 -4 22 8 12 10 10
11 -14z m49 10 c3 -4 -1 -5 -10 -4 -8 1 -18 5 -22 8 -3 4 1 5 10 4 8 -1 18 -5
22 -8z m399 3 c-9 -8 -36 -10 -30 -2 2 4 11 8 20 8 8 0 13 -3 10 -6z m28 -16
c-7 -21 -12 -19 -10 4 0 11 5 18 9 15 4 -3 5 -11 1 -19z m42 7 c-3 -3 -11 0
-18 7 -9 10 -8 11 6 5 10 -3 15 -9 12 -12z m1762 3 c0 -8 -4 -12 -9 -9 -5 3
-6 10 -3 15 9 13 12 11 12 -6z m-2420 -8 c0 -7 -9 -14 -20 -14 -19 -2 -19 -2
-1 12 11 8 19 15 20 15 0 0 1 -6 1 -13z m233 -2 c-7 -8 -17 -15 -23 -15 -6 0
-2 7 9 15 25 19 30 19 14 0z m309 -12 c2 -1 -5 -1 -16 0 -11 0 -20 7 -20 14 0
10 4 10 16 1 9 -7 18 -13 20 -15z m422 10 c13 -16 12 -17 -3 -4 -10 7 -18 15
-18 17 0 8 8 3 21 -13z m-1204 -10 c0 -10 -4 -10 -16 -1 -9 7 -18 13 -20 15
-2 1 5 1 16 0 11 0 20 -7 20 -14z m662 14 c-2 -1 -13 -9 -24 -17 -19 -14 -19
-14 -6 3 7 9 18 17 24 17 6 0 8 -1 6 -3z m360 0 c-2 -2 -11 -8 -20 -15 -12 -9
-16 -9 -16 1 0 7 9 14 20 14 11 1 18 1 16 0z m79 -18 c9 -12 9 -16 -1 -16 -7
0 -14 9 -14 20 -1 11 -1 18 0 16 2 -2 8 -11 15 -20z m1317 11 c3 -5 1 -10 -4
-10 -6 0 -11 5 -11 10 0 6 2 10 4 10 3 0 8 -4 11 -10z m120 1 c3 -5 2 -12 -3
-15 -5 -3 -9 1 -9 9 0 17 3 19 12 6z m179 -2 c3 -3 -5 -5 -19 -5 -13 0 -22 3
-19 7 4 8 30 6 38 -2z m106 1 c0 -4 -7 -7 -15 -6 -23 3 -26 12 -5 13 11 1 20
-2 20 -7z m125 1 c-9 -8 -36 -10 -30 -2 2 4 11 8 20 8 8 0 13 -3 10 -6z
m-3004 -24 c-6 -8 -8 -16 -5 -19 3 -3 1 -9 -4 -12 -6 -3 -9 0 -8 6 2 16 15 38
23 38 3 0 0 -6 -6 -13z m759 -1 c-7 -7 -13 -7 -20 0 -6 6 -3 10 10 10 13 0 16
-4 10 -10z m35 5 c3 -5 2 -12 -3 -15 -5 -3 -9 1 -9 9 0 17 3 19 12 6z m1729
-3 c-3 -4 -9 -8 -15 -8 -5 0 -9 4 -9 8 0 5 7 9 15 9 8 0 12 -4 9 -9z m120 0
c-3 -4 -9 -8 -15 -8 -5 0 -9 4 -9 8 0 5 7 9 15 9 8 0 12 -4 9 -9z m953 -5
c-14 -14 -19 -15 -29 -4 -11 10 -10 11 3 6 10 -4 20 -2 24 4 3 6 9 11 13 11 3
0 -1 -8 -11 -17z m137 8 c4 -5 -3 -7 -14 -4 -23 6 -26 13 -6 13 8 0 17 -4 20
-9z m-3558 -16 c-1 -8 -5 -17 -8 -21 -5 -4 -4 16 1 34 3 9 9 -1 7 -13z m198
-15 c-6 -6 -10 -3 -10 10 0 13 4 16 10 10 7 -7 7 -13 0 -20z m202 4 c1 -9 0
-13 -4 -10 -3 4 -7 14 -8 22 -1 9 0 13 4 10 3 -4 7 -14 8 -22z m1983 13 c8
-10 7 -14 -2 -14 -8 0 -14 6 -14 14 0 7 1 13 2 13 2 0 8 -6 14 -13z m180 0 c8
-10 7 -14 -2 -14 -8 0 -14 6 -14 14 0 7 1 13 2 13 2 0 8 -6 14 -13z m120 0 c8
-10 7 -14 -2 -14 -8 0 -14 6 -14 14 0 7 1 13 2 13 2 0 8 -6 14 -13z m125 -6
c14 -15 15 -21 4 -27 -7 -4 -10 -3 -5 1 4 5 0 17 -10 27 -9 10 -14 18 -11 18
3 0 13 -9 22 -19z m732 7 c5 4 5 3 1 -2 -12 -15 -34 -15 -34 0 0 9 4 11 12 4
7 -5 16 -6 21 -2z m145 -5 c13 -16 12 -17 -3 -4 -10 7 -18 15 -18 17 0 8 8 3
21 -13z m-3601 -2 c0 -6 -4 -12 -8 -15 -5 -3 -9 1 -9 9 0 8 4 15 9 15 4 0 8
-4 8 -9z m405 -1 c-3 -5 -12 -10 -18 -10 -7 0 -6 4 3 10 19 12 23 12 15 0z
m195 1 c0 -6 -4 -12 -8 -15 -5 -3 -9 1 -9 9 0 8 4 15 9 15 4 0 8 -4 8 -9z
m216 -17 c-3 -15 -8 -29 -11 -32 -3 -3 -3 5 -1 19 2 13 5 27 5 32 1 4 3 7 6 7
3 0 3 -12 1 -26z m1529 16 c3 -6 -1 -7 -9 -4 -18 7 -21 14 -7 14 6 0 13 -4 16
-10z m835 4 c0 -8 -19 -13 -24 -6 -3 5 1 9 9 9 8 0 15 -2 15 -3z m70 0 c0 -8
-19 -13 -24 -6 -3 5 1 9 9 9 8 0 15 -2 15 -3z m285 -22 c2 -12 1 -24 -3 -26
-4 -2 -8 9 -8 25 -2 33 4 33 11 1z m41 16 c3 -4 -1 -5 -10 -4 -8 1 -18 5 -22
8 -3 4 1 5 10 4 8 -1 18 -5 22 -8z m-3360 -24 c1 -9 0 -13 -4 -10 -3 4 -7 14
-8 22 -1 9 0 13 4 10 3 -4 7 -14 8 -22z m480 0 c1 -9 0 -13 -4 -10 -3 4 -7 14
-8 22 -1 9 0 13 4 10 3 -4 7 -14 8 -22z m2000 11 c-1 -8 -5 -17 -8 -21 -5 -4
-4 16 1 34 3 9 9 -1 7 -13z m119 6 c3 -5 2 -12 -3 -15 -5 -3 -9 1 -9 9 0 17 3
19 12 6z m404 -4 c8 -10 7 -14 -4 -14 -8 0 -11 5 -8 10 4 6 -1 8 -11 4 -10 -4
-15 -3 -11 3 8 14 20 12 34 -3z m176 3 c4 -6 -1 -7 -11 -3 -10 4 -15 2 -11 -4
3 -5 0 -10 -8 -10 -11 0 -12 4 -4 14 14 15 26 17 34 3z m-615 -8 c0 -5 -7 -9
-15 -9 -8 0 -12 4 -9 9 3 4 9 8 15 8 5 0 9 -4 9 -8z m520 -2 c0 -5 -4 -10 -10
-10 -5 0 -10 5 -10 10 0 6 5 10 10 10 6 0 10 -4 10 -10z m-3595 -20 c10 -11
16 -20 13 -20 -3 0 -13 9 -23 20 -10 11 -16 20 -13 20 3 0 13 -9 23 -20z
m2615 16 c0 -2 -6 -9 -14 -15 -11 -9 -16 -9 -22 0 -4 7 -3 9 4 5 6 -3 13 -2
17 4 6 10 15 14 15 6z m674 -9 c3 4 6 1 6 -6 0 -8 -6 -11 -16 -7 -9 4 -22 2
-28 -3 -8 -7 -12 -4 -12 8 0 15 5 17 22 11 12 -5 25 -6 28 -3z m43 -9 c-3 -8
-6 -5 -6 6 -1 11 2 17 5 13 3 -3 4 -12 1 -19z m435 7 c20 1 35 -2 33 -5 -2 -4
-17 -6 -32 -5 -15 1 -33 -2 -38 -6 -7 -5 -11 0 -12 14 -1 12 1 17 5 11 4 -6
24 -10 44 -9z m115 9 c-3 -3 -12 -4 -19 -1 -8 3 -5 6 6 6 11 1 17 -2 13 -5z
m181 -7 c-1 -2 2 -10 9 -18 10 -12 8 -15 -7 -15 -14 0 -16 4 -10 17 5 9 7 19
5 23 -3 3 -2 4 1 2 3 -2 4 -6 2 -9z m-3911 -15 c0 -10 -6 -19 -13 -19 -9 0 -9
5 -1 19 7 10 13 18 14 18 1 0 1 -8 0 -18z m100 1 c0 -10 -4 -10 -16 -1 -9 7
-18 13 -20 15 -2 1 5 1 16 0 11 0 20 -7 20 -14z m63 12 c0 -7 -30 -13 -34 -7
-3 4 4 9 15 9 10 1 19 0 19 -2z m80 -20 c14 -19 14 -19 -2 -6 -10 7 -18 18
-18 24 0 6 1 8 3 6 1 -2 9 -13 17 -24z m237 6 c0 -11 -5 -18 -9 -15 -4 3 -5
11 -1 19 7 21 12 19 10 -4z m100 2 c0 -10 -4 -10 -16 -1 -9 7 -18 13 -20 15
-2 1 5 1 16 0 11 0 20 -7 20 -14z m179 -19 c1 -9 -1 -13 -4 -9 -4 4 -7 10 -7
13 0 4 -4 14 -9 22 -7 12 -6 13 4 3 8 -7 15 -20 16 -29z m1815 19 c12 -16 12
-17 -2 -6 -9 7 -20 9 -24 5 -5 -4 -5 -1 -1 6 9 16 11 15 27 -5z m144 8 c3 -5
2 -12 -3 -15 -5 -3 -9 1 -9 9 0 17 3 19 12 6z m499 -7 c3 -8 2 -12 -4 -9 -6 3
-10 10 -10 16 0 14 7 11 14 -7z m36 10 c0 -8 -19 -13 -24 -6 -3 5 1 9 9 9 8 0
15 -2 15 -3z m550 -4 c0 -5 -4 -10 -10 -10 -5 0 -10 5 -10 10 0 6 5 10 10 10
6 0 10 -4 10 -10z m-3524 -26 c1 -9 0 -13 -4 -10 -3 4 -7 14 -8 22 -1 9 0 13
4 10 3 -4 7 -14 8 -22z m3167 13 c3 -7 -3 -13 -14 -13 -13 0 -15 3 -7 13 6 7
12 13 13 13 2 0 5 -6 8 -13z m-3523 -12 c-10 -12 -10 -18 1 -32 12 -17 12 -17
-6 -1 -15 14 -16 20 -5 32 7 9 15 16 17 16 3 0 0 -7 -7 -15z m480 0 c-10 -12
-10 -18 1 -32 12 -17 12 -17 -6 -1 -15 14 -16 20 -5 32 7 9 15 16 17 16 3 0 0
-7 -7 -15z m45 5 c3 -6 -1 -7 -9 -4 -18 7 -21 14 -7 14 6 0 13 -4 16 -10z m80
1 c-9 -8 -36 -10 -30 -2 2 4 11 8 20 8 8 0 13 -3 10 -6z m401 -3 c3 -4 -1 -5
-10 -4 -8 1 -18 5 -22 8 -3 4 1 5 10 4 8 -1 18 -5 22 -8z m1709 3 c3 -5 2 -12
-3 -15 -5 -3 -9 1 -9 9 0 17 3 19 12 6z m51 -3 c3 -4 -1 -5 -10 -4 -8 1 -18 5
-22 8 -3 4 1 5 10 4 8 -1 18 -5 22 -8z m388 -4 c3 -8 2 -12 -4 -9 -6 3 -10 10
-10 16 0 14 7 11 14 -7z m201 -31 c-1 -16 2 -33 6 -38 5 -7 1 -11 -11 -11 -13
0 -16 5 -11 16 10 20 8 51 -4 70 -7 12 -6 13 7 3 8 -7 14 -25 13 -40z m120 29
c-3 -3 -11 0 -18 7 -9 10 -8 11 6 5 10 -3 15 -9 12 -12z m90 8 c-3 -5 -12 -10
-18 -10 -7 0 -6 4 3 10 19 12 23 12 15 0z m69 -6 c3 -8 2 -12 -4 -9 -6 3 -10
10 -10 16 0 14 7 11 14 -7z m293 10 c-3 -3 -12 -4 -19 -1 -8 3 -5 6 6 6 11 1
17 -2 13 -5z m29 -20 c1 -9 0 -13 -4 -10 -3 4 -7 14 -8 22 -1 9 0 13 4 10 3
-4 7 -14 8 -22z m86 19 c-6 -2 -9 -10 -6 -15 4 -7 2 -8 -5 -4 -13 9 -5 26 12
25 9 0 8 -2 -1 -6z m-3824 -28 c-3 -3 -9 2 -12 12 -6 14 -5 15 5 6 7 -7 10
-15 7 -18z m477 16 c3 -5 2 -12 -3 -15 -5 -3 -9 1 -9 9 0 17 3 19 12 6z m261
-11 c0 -12 -4 -16 -9 -11 -5 5 -6 14 -3 20 10 15 12 14 12 -9z m2956 5 c2 3 4
-12 3 -32 0 -23 -6 -38 -15 -41 -9 -2 -11 0 -5 5 15 12 12 47 -5 69 -14 17
-13 18 1 7 9 -7 18 -11 21 -8z m-3946 -7 c3 -4 -1 -5 -10 -4 -8 1 -18 5 -22 8
-3 4 1 5 10 4 8 -1 18 -5 22 -8z m698 4 c3 -5 -1 -9 -9 -9 -8 0 -12 4 -9 9 3
4 7 8 9 8 2 0 6 -4 9 -8z m1916 2 c0 -8 -19 -13 -24 -6 -3 5 1 9 9 9 8 0 15
-2 15 -3z m240 0 c0 -8 -19 -13 -24 -6 -3 5 1 9 9 9 8 0 15 -2 15 -3z m486 -7
c4 -3 -4 -4 -16 -2 -12 2 -25 7 -28 10 -3 3 4 4 16 2 12 -2 24 -6 28 -10z
m170 -21 c1 -9 -2 -14 -7 -10 -5 3 -6 10 -3 16 5 7 2 9 -8 6 -8 -4 -15 0 -15
8 0 19 30 1 33 -20z m329 24 c3 -6 -1 -7 -9 -4 -18 7 -21 14 -7 14 6 0 13 -4
16 -10z m36 -4 c-5 -6 -7 -19 -5 -29 1 -11 0 -16 -4 -12 -12 12 -9 52 4 52 9
0 10 -5 5 -11z m-638 -9 c3 -8 -1 -14 -8 -14 -7 0 -11 6 -8 14 3 7 6 13 8 13
2 0 5 -6 8 -13z m361 -3 c5 -14 4 -15 -9 -4 -17 14 -19 20 -6 20 5 0 12 -7 15
-16z m-3519 -4 c-3 -5 -12 -10 -18 -10 -7 0 -6 4 3 10 19 12 23 12 15 0z m32
-12 c2 -17 0 -19 -7 -8 -5 8 -6 18 -4 22 8 12 10 10 11 -14z m208 13 c-9 -8
-36 -10 -30 -2 2 4 11 8 20 8 8 0 13 -3 10 -6z m81 -3 c3 -4 -1 -5 -10 -4 -8
1 -18 5 -22 8 -3 4 1 5 10 4 8 -1 18 -5 22 -8z m191 -11 c1 -11 1 -18 0 -16
-2 2 -8 11 -15 20 -9 12 -9 16 1 16 7 0 14 -9 14 -20z m241 4 c-7 -9 -13 -18
-15 -20 -1 -2 -1 5 0 16 0 11 7 20 14 20 10 0 10 -4 1 -16z m47 9 c3 -6 -1 -7
-9 -4 -18 7 -21 14 -7 14 6 0 13 -4 16 -10z m2397 3 c-9 -3 -10 -9 -3 -17 8
-9 7 -13 -3 -13 -11 0 -14 12 -7 35 1 1 7 2 14 1 9 0 9 -2 -1 -6z m279 -8 c-4
-5 -7 -29 -6 -53 0 -24 -2 -45 -5 -47 -4 -2 -6 20 -5 48 0 29 -4 55 -9 59 -6
4 -1 6 11 5 13 -1 19 -5 14 -12z m279 0 c0 -1 -8 -9 -18 -18 -15 -14 -19 -15
-19 -2 0 8 5 11 10 8 6 -4 8 0 4 10 -4 11 -2 14 9 10 7 -3 14 -6 14 -8z m85 5
c3 -6 -1 -7 -9 -4 -18 7 -21 14 -7 14 6 0 13 -4 16 -10z m113 -15 c-6 -11 -12
-21 -12 -21 -1 -1 8 -12 19 -25 19 -22 19 -23 1 -9 -18 13 -19 13 -14 -1 4 -9
1 -16 -7 -16 -9 0 -11 6 -6 16 9 19 8 52 -1 66 -4 6 2 11 12 11 15 0 17 -4 8
-21z m47 15 c3 -6 -1 -7 -9 -4 -18 7 -21 14 -7 14 6 0 13 -4 16 -10z m-3837
-9 c16 12 16 12 0 -6 -18 -19 -18 -19 -35 0 -17 18 -17 18 0 6 14 -11 20 -11
35 0z m446 -21 c-6 -6 -10 -3 -10 10 0 13 4 16 10 10 7 -7 7 -13 0 -20z m46
26 c0 -2 -8 -10 -17 -17 -16 -13 -17 -12 -4 4 13 16 21 21 21 13z m200 0 c0
-2 -8 -10 -17 -17 -16 -13 -17 -12 -4 4 13 16 21 21 21 13z m2517 -10 c0 -8
-6 -12 -15 -9 -11 5 -11 7 0 14 7 5 13 9 14 9 0 0 1 -6 1 -14z m270 8 c-3 -3
-12 -4 -19 -1 -8 3 -5 6 6 6 11 1 17 -2 13 -5z m-962 -14 c-3 -5 -12 -10 -18
-10 -7 0 -6 4 3 10 19 12 23 12 15 0z m551 -26 c0 -13 -2 -22 -5 -19 -3 3 -6
17 -7 31 0 13 2 22 5 19 3 -3 6 -17 7 -31z m364 26 c0 -5 -4 -10 -10 -10 -5 0
-10 5 -10 10 0 6 5 10 10 10 6 0 10 -4 10 -10z m235 -8 c-3 -3 -11 0 -18 7 -9
10 -8 11 6 5 10 -3 15 -9 12 -12z m-3919 -4 c-3 -21 -16 -38 -29 -38 -7 0 -6
4 3 10 8 5 16 14 16 20 2 16 4 20 8 20 2 0 3 -6 2 -12z m3361 -3 c0 -8 -4 -12
-9 -9 -5 3 -6 10 -3 15 9 13 12 11 12 -6z m275 -17 c-2 -10 -6 -18 -7 -18 -1
0 -5 8 -7 18 -3 11 0 19 7 19 7 0 10 -8 7 -19z m117 0 c-5 -10 -11 -18 -12
-18 -2 0 -3 8 -3 18 0 10 6 19 13 19 8 0 9 -6 2 -19z m384 4 c4 9 6 9 6 1 2
-22 -16 -23 -35 0 l-19 22 21 -18 c17 -14 23 -15 27 -5z m95 -7 c-3 -3 -9 2
-12 12 -6 14 -5 15 5 6 7 -7 10 -15 7 -18z m-4172 -11 c1 -9 0 -13 -4 -10 -3
4 -7 14 -8 22 -1 9 0 13 4 10 3 -4 7 -14 8 -22z m485 9 c13 -16 12 -17 -3 -4
-17 13 -22 21 -14 21 2 0 10 -8 17 -17z m35 -3 c0 -12 -4 -16 -9 -11 -5 5 -6
14 -3 20 10 15 12 14 12 -9z m140 0 c0 -12 -4 -16 -9 -11 -5 5 -6 14 -3 20 10
15 12 14 12 -9z m140 -6 c1 -9 0 -13 -4 -10 -3 4 -7 14 -8 22 -1 9 0 13 4 10
3 -4 7 -14 8 -22z m3002 10 c8 -2 17 -5 20 -8 3 -4 -4 -5 -16 -3 -12 2 -28 9
-35 17 -10 10 -9 11 3 4 8 -5 21 -9 28 -10z m59 10 c-3 -3 -12 -4 -19 -1 -8 3
-5 6 6 6 11 1 17 -2 13 -5z m-3622 -13 c-9 -8 -36 -10 -30 -2 2 4 11 8 20 8 8
0 13 -3 10 -6z m125 5 c0 -2 -7 -7 -16 -10 -8 -3 -12 -2 -9 4 6 10 25 14 25 6z
m211 -23 c-12 -20 -14 -14 -5 12 4 9 9 14 11 11 3 -2 0 -13 -6 -23z m2724 9
c-3 -3 -11 0 -18 7 -9 10 -8 11 6 5 10 -3 15 -9 12 -12z m158 -2 c10 -10 9
-11 -3 -4 -8 5 -21 9 -28 10 -8 2 -17 5 -20 8 -3 4 4 5 16 3 12 -2 28 -9 35
-17z m209 2 c3 -11 0 -19 -7 -19 -7 0 -10 8 -7 19 2 10 6 18 7 18 1 0 5 -8 7
-18z m441 -5 c3 -7 -3 -13 -14 -13 -13 0 -15 3 -7 13 6 7 12 13 13 13 2 0 5
-6 8 -13z m120 0 c3 -8 -1 -14 -8 -14 -7 0 -11 6 -8 14 3 7 6 13 8 13 2 0 5
-6 8 -13z m-4085 -16 c-7 -9 -13 -18 -15 -20 -1 -2 -1 5 0 16 0 11 7 20 14 20
10 0 10 -4 1 -16z m122 11 c0 -5 -10 -17 -22 -28 -23 -19 -23 -19 -5 2 9 11
14 24 10 27 -3 4 -1 7 5 7 7 0 12 -4 12 -8z m124 0 c2 -4 -4 -8 -14 -8 -10 0
-16 4 -14 8 3 4 9 8 14 8 5 0 11 -4 14 -8z m2871 -10 c-3 -3 -11 0 -18 7 -9
10 -8 11 6 5 10 -3 15 -9 12 -12z m88 1 c-4 -10 -9 -11 -19 -2 -18 15 -18 15
5 15 11 0 17 -5 14 -13z m41 5 c-3 -5 0 -16 8 -25 9 -12 9 -15 1 -9 -22 12
-34 43 -18 43 8 0 12 -4 9 -9z m201 2 c-3 -5 -12 -10 -18 -10 -7 0 -6 4 3 10
19 12 23 12 15 0z m155 0 c0 -5 -4 -10 -10 -10 -5 0 -10 5 -10 10 0 6 5 10 10
10 6 0 10 -4 10 -10z m164 2 c-5 -4 -10 -24 -9 -44 1 -20 -2 -35 -5 -33 -5 3
-6 71 -1 83 1 1 7 2 14 2 8 0 8 -3 1 -8z m30 -1 c3 -5 -2 -15 -12 -22 -15 -12
-16 -12 -5 2 7 9 10 19 6 22 -3 4 -4 7 0 7 3 0 8 -4 11 -9z m-3597 -46 c0 -8
-4 -12 -9 -9 -5 4 -7 9 -4 12 3 3 -2 15 -11 26 -18 21 -18 21 3 3 11 -9 21
-24 21 -32z m297 15 c-6 -6 -10 -3 -10 10 0 13 4 16 10 10 7 -7 7 -13 0 -20z
m2913 24 c-3 -3 -12 -4 -19 -1 -8 3 -5 6 6 6 11 1 17 -2 13 -5z m-3488 -7 c-2
-1 -13 -9 -24 -17 -19 -14 -19 -14 -6 3 7 9 18 17 24 17 6 0 8 -1 6 -3z m478
-15 c0 -10 -6 -19 -13 -19 -9 0 -9 5 -1 19 7 10 13 18 14 18 1 0 1 -8 0 -18z
m253 12 c0 -8 -19 -13 -24 -6 -3 5 1 9 9 9 8 0 15 -2 15 -3z m2430 -4 c0 -5
-4 -10 -10 -10 -5 0 -10 5 -10 10 0 6 5 10 10 10 6 0 10 -4 10 -10z m240 -5
c-10 -12 -10 -15 0 -15 8 0 11 -3 7 -6 -3 -3 -11 -3 -17 1 -8 5 -8 11 1 21 6
8 14 14 16 14 3 0 0 -7 -7 -15z m160 -17 c0 -19 -16 -5 -17 14 -2 18 0 20 7 8
5 -8 10 -18 10 -22z m207 10 c-3 -8 -6 -5 -6 6 -1 11 2 17 5 13 3 -3 4 -12 1
-19z m353 12 c0 -5 -4 -10 -10 -10 -5 0 -10 5 -10 10 0 6 5 10 10 10 6 0 10
-4 10 -10z m-437 -13 c3 -7 -3 -13 -14 -13 -13 0 -15 3 -7 13 6 7 12 13 13 13
2 0 5 -6 8 -13z m118 -4 c13 -16 12 -17 -3 -4 -10 7 -18 15 -18 17 0 8 8 3 21
-13z m-3755 -5 c3 -4 -1 -5 -10 -4 -8 1 -18 5 -22 8 -3 4 1 5 10 4 8 -1 18 -5
22 -8z m354 -2 c-7 -7 -13 -7 -20 0 -6 6 -3 10 10 10 13 0 16 -4 10 -10z m35
5 c3 -5 2 -12 -3 -15 -5 -3 -9 1 -9 9 0 17 3 19 12 6z m249 -3 c-3 -4 -9 -8
-15 -8 -5 0 -9 4 -9 8 0 5 7 9 15 9 8 0 12 -4 9 -9z m2523 6 c-3 -3 -12 -4
-19 -1 -8 3 -5 6 6 6 11 1 17 -2 13 -5z m70 -1 c-4 -3 1 -16 10 -27 17 -20 17
-20 -1 -6 -18 13 -19 13 -14 -1 4 -9 1 -16 -7 -16 -9 0 -11 6 -6 16 5 9 6 22
4 29 -3 6 1 12 8 12 7 0 9 -3 6 -7z m240 1 c-3 -3 -12 -4 -19 -1 -8 3 -5 6 6
6 11 1 17 -2 13 -5z m118 -12 c-3 -3 -11 0 -18 7 -9 10 -8 11 6 5 10 -3 15 -9
12 -12z m248 1 c-4 -10 -2 -14 4 -10 5 3 10 0 10 -8 0 -12 -4 -12 -19 2 -14
13 -16 18 -6 25 18 11 18 10 11 -9z m113 -2 c-13 -12 -18 -13 -28 -2 -11 10
-9 11 6 5 12 -5 17 -4 13 3 -3 5 1 10 9 10 13 0 13 -2 0 -16z m81 13 c-3 -3
-12 -4 -19 -1 -8 3 -5 6 6 6 11 1 17 -2 13 -5z m-4141 -19 c-1 -8 -5 -17 -8
-21 -5 -4 -4 16 1 34 3 9 9 -1 7 -13z m680 0 c-1 -8 -5 -17 -8 -21 -5 -4 -4
16 1 34 3 9 9 -1 7 -13z m2778 -14 c-2 -3 -12 3 -22 13 -16 17 -16 18 5 5 12
-7 20 -15 17 -18z m343 7 c-3 -8 -6 -5 -6 6 -1 11 2 17 5 13 3 -3 4 -12 1 -19z
m352 5 c-17 -19 -19 -55 -4 -65 5 -4 0 -6 -12 -5 -14 1 -19 5 -14 12 4 5 7 22
6 37 -1 15 2 25 6 22 4 -2 10 0 14 6 3 5 9 10 12 10 3 0 -1 -7 -8 -17z m-4104
-2 c-9 -8 -36 -10 -30 -2 2 4 11 8 20 8 8 0 13 -3 10 -6z m175 -16 c14 -19 14
-19 -2 -6 -10 7 -18 18 -18 24 0 6 1 8 3 6 1 -2 9 -13 17 -24z m204 17 c2 -4
-4 -8 -14 -8 -10 0 -16 4 -14 8 3 4 9 8 14 8 5 0 11 -4 14 -8z m221 -1 c-9 -8
-36 -10 -30 -2 2 4 11 8 20 8 8 0 13 -3 10 -6z m2610 -27 c0 -18 -3 -35 -6
-39 -3 -3 -5 7 -4 22 1 16 -2 33 -6 39 -5 6 -3 11 4 11 8 0 13 -12 12 -33z
m961 10 c-1 -13 -5 -26 -8 -29 -4 -4 -5 1 -4 12 2 10 0 23 -5 29 -5 6 -4 11 5
11 7 0 12 -10 12 -23z m-4278 -9 c-3 -3 -9 2 -12 12 -6 14 -5 15 5 6 7 -7 10
-15 7 -18z m523 8 c13 -16 12 -17 -3 -4 -10 7 -18 15 -18 17 0 8 8 3 21 -13z
m3159 -4 c0 -5 -4 -9 -8 -9 -5 0 -9 7 -9 15 0 8 4 12 9 9 4 -3 8 -9 8 -15z
m80 17 c0 -2 -7 -9 -15 -16 -13 -11 -14 -10 -9 4 5 14 24 23 24 12z m-3435
-16 c-3 -5 -12 -10 -18 -10 -7 0 -6 4 3 10 19 12 23 12 15 0z m32 -12 c2 -17
0 -19 -7 -8 -5 8 -6 18 -4 22 8 12 10 10 11 -14z m49 10 c3 -4 -1 -5 -10 -4
-8 1 -18 5 -22 8 -3 4 1 5 10 4 8 -1 18 -5 22 -8z m164 6 c0 -8 -19 -13 -24
-6 -3 5 1 9 9 9 8 0 15 -2 15 -3z m76 -6 c3 -4 -1 -5 -10 -4 -8 1 -18 5 -22 8
-3 4 1 5 10 4 8 -1 18 -5 22 -8z m2919 4 c-6 -4 -10 -32 -10 -62 0 -30 4 -59
10 -63 6 -5 4 -7 -5 -4 -11 3 -15 19 -15 63 -1 66 1 74 18 74 8 0 8 -3 2 -8z
m236 -12 c-5 -8 -7 -23 -6 -33 2 -9 0 -15 -5 -12 -5 3 -7 13 -5 23 1 9 -1 22
-6 27 -5 7 -1 11 11 11 13 0 16 -4 11 -16z m44 10 c3 -6 -1 -7 -9 -4 -18 7
-21 14 -7 14 6 0 13 -4 16 -10z m275 0 c0 -5 -4 -10 -10 -10 -5 0 -10 5 -10
10 0 6 5 10 10 10 6 0 10 -4 10 -10z m-3663 -13 c0 -7 -9 -14 -20 -14 -19 -2
-19 -2 -1 12 11 8 19 15 20 15 0 0 1 -6 1 -13z m233 -2 c-7 -8 -17 -15 -23
-15 -6 0 -2 7 9 15 25 19 30 19 14 0z m3265 0 c11 0 27 4 35 10 12 7 13 6 3
-7 -16 -19 -65 -17 -71 2 -2 9 0 11 5 5 4 -6 17 -10 28 -10z m114 -14 c7 -13
6 -18 -4 -18 -7 0 -11 7 -7 15 3 9 1 13 -5 9 -5 -3 -10 0 -10 8 0 17 14 10 26
-14z m249 4 c-3 -3 -9 2 -12 12 -6 14 -5 15 5 6 7 -7 10 -15 7 -18z m-4101 -2
c0 -10 -4 -10 -16 -1 -9 7 -18 13 -20 15 -2 1 5 1 16 0 11 0 20 -7 20 -14z
m3063 3 c-7 -7 -13 -7 -20 0 -6 6 -3 10 10 10 13 0 16 -4 10 -10z m157 -6 c-1
-11 -5 -20 -9 -20 -3 0 -6 9 -5 20 1 11 5 20 9 20 3 0 6 -9 5 -20z m217 9 c3
-3 -10 -5 -29 -4 -18 0 -36 3 -39 6 -3 3 10 5 29 4 18 0 36 -3 39 -6z m591 1
c-3 -5 -12 -10 -18 -10 -7 0 -6 4 3 10 19 12 23 12 15 0z m-122 -13 c3 -7 -3
-13 -14 -13 -13 0 -15 3 -7 13 6 7 12 13 13 13 2 0 5 -6 8 -13z m-3962 -10
c-6 -8 -7 -18 -3 -22 4 -5 1 -5 -6 -1 -10 6 -10 11 -1 22 6 8 14 14 16 14 3 0
0 -6 -6 -13z m3203 -2 c-4 -8 -11 -15 -16 -15 -6 0 -5 6 2 15 7 8 14 15 16 15
2 0 1 -7 -2 -15z m123 9 c-3 -3 -12 -4 -19 -1 -8 3 -5 6 6 6 11 1 17 -2 13 -5z
m236 -11 c-3 -7 -6 -13 -8 -13 -2 0 -5 6 -8 13 -3 8 1 14 8 14 7 0 11 -6 8
-14z m148 0 c13 -16 12 -17 -3 -4 -10 7 -18 15 -18 17 0 8 8 3 21 -13z m486
-23 c1 -11 -1 -20 -6 -20 -5 0 -8 8 -6 18 1 9 -2 24 -8 32 -9 12 -9 13 3 3 7
-7 15 -22 17 -33z m-4020 15 c0 -8 -3 -13 -5 -10 -3 3 -15 -3 -26 -12 -15 -13
-14 -10 3 10 29 32 28 31 28 12z m197 -15 c-6 -6 -10 -3 -10 10 0 13 4 16 10
10 7 -7 7 -13 0 -20z m3100 0 c-6 -6 -10 -3 -10 10 0 13 4 16 10 10 7 -7 7
-13 0 -20z m23 -2 c-3 -7 -5 -2 -5 12 0 14 2 19 5 13 2 -7 2 -19 0 -25z m38
23 c3 -5 2 -12 -3 -15 -5 -3 -9 1 -9 9 0 17 3 19 12 6z m285 5 c0 -2 -8 -10
-17 -17 -16 -13 -17 -12 -4 4 13 16 21 21 21 13z m176 -22 c1 -9 0 -13 -4 -10
-3 4 -7 14 -8 22 -1 9 0 13 4 10 3 -4 7 -14 8 -22z m91 20 c-3 -3 -12 -4 -19
-1 -8 3 -5 6 6 6 11 1 17 -2 13 -5z m-3582 -14 c3 -6 -1 -7 -9 -4 -18 7 -21
14 -7 14 6 0 13 -4 16 -10z m2660 0 c-3 -5 -12 -10 -18 -10 -7 0 -6 4 3 10 19
12 23 12 15 0z m126 -13 c-10 -9 -11 -8 -5 6 3 10 9 15 12 12 3 -3 0 -11 -7
-18z m405 11 c5 -7 3 -8 -6 -3 -9 6 -12 4 -8 -7 4 -8 0 -15 -7 -15 -10 0 -11
5 -4 19 11 21 15 22 25 6z m164 4 c0 -4 -10 -9 -22 -9 -18 -2 -20 0 -8 7 18
12 30 13 30 2z m285 -1 c-3 -2 -16 -6 -28 -8 -15 -2 -18 0 -9 5 14 9 45 12 37
3z m-3904 -18 c13 -16 12 -17 -3 -4 -10 7 -18 15 -18 17 0 8 8 3 21 -13z
m-362 -27 c-3 -3 -11 5 -18 17 -13 21 -12 21 5 5 10 -10 16 -20 13 -22z m74 9
c-7 -21 -12 -19 -10 4 0 11 5 18 9 15 4 -3 5 -11 1 -19z m43 -11 c1 -9 -1 -13
-4 -9 -4 4 -7 10 -7 13 0 4 -4 14 -9 22 -7 12 -6 13 4 3 8 -7 15 -20 16 -29z
m3210 24 c3 -4 -1 -5 -10 -4 -8 1 -18 5 -22 8 -3 4 1 5 10 4 8 -1 18 -5 22 -8z
m74 -23 c0 -5 -5 -3 -10 5 -5 8 -10 20 -10 25 0 6 5 3 10 -5 5 -8 10 -19 10
-25z m605 27 c-15 -10 -12 -46 5 -68 14 -17 13 -18 -1 -7 -9 7 -18 11 -21 8
-3 -4 -3 63 1 73 1 1 7 2 14 2 8 0 8 -3 2 -8z m42 2 c-3 -3 -12 -4 -19 -1 -8
3 -5 6 6 6 11 1 17 -2 13 -5z m28 -38 c1 -21 -4 -33 -12 -33 -7 0 -9 5 -4 11
4 6 7 23 6 39 -1 15 1 25 4 22 3 -4 6 -21 6 -39z m86 29 c-4 -5 -7 -23 -6 -38
1 -15 -1 -30 -5 -32 -3 -2 -6 13 -5 33 1 20 -3 40 -9 44 -6 4 -1 6 11 5 14 -1
19 -5 14 -12z m-3751 -10 c-7 -8 -17 -15 -23 -15 -6 0 -2 7 9 15 25 19 30 19
14 0z m3037 9 c-3 -3 -12 -4 -19 -1 -8 3 -5 6 6 6 11 1 17 -2 13 -5z m212 -8
c9 -10 8 -15 -2 -19 -8 -3 -13 3 -13 14 0 23 0 23 15 5z m78 -1 c0 -8 -5 -11
-10 -8 -7 4 -8 -1 -3 -13 6 -15 5 -16 -5 -7 -10 10 -9 15 1 28 15 19 17 19 17
0z m190 9 c-3 -3 -12 -4 -19 -1 -8 3 -5 6 6 6 11 1 17 -2 13 -5z m-3492 -21
c-1 -10 3 -25 9 -33 9 -13 9 -13 -6 -2 -13 10 -16 26 -9 50 4 11 9 -2 6 -15z
m122 -1 c0 -10 -6 -19 -13 -19 -9 0 -9 5 -1 19 7 10 13 18 14 18 1 0 1 -8 0
-18z m2763 -5 c0 -2 -8 -3 -18 -3 -10 0 -19 6 -19 13 0 8 6 9 19 2 10 -5 18
-11 18 -12z m294 14 c-7 -8 -74 -9 -69 -1 2 3 19 6 39 6 19 0 33 -3 30 -5z
m86 -1 c0 -5 -4 -10 -10 -10 -5 0 -10 5 -10 10 0 6 5 10 10 10 6 0 10 -4 10
-10z m180 0 c0 -5 -4 -10 -10 -10 -5 0 -10 5 -10 10 0 6 5 10 10 10 6 0 10 -4
10 -10z m165 0 c3 -6 -1 -7 -9 -4 -18 7 -21 14 -7 14 6 0 13 -4 16 -10z m172
-4 c0 -8 -6 -12 -15 -9 -11 5 -11 7 0 14 7 5 13 9 14 9 0 0 1 -6 1 -14z
m-4021 -11 c-1 -8 -5 -17 -8 -21 -5 -4 -4 16 1 34 3 9 9 -1 7 -13z m44 11 c0
-2 -8 -10 -17 -17 -16 -13 -17 -12 -4 4 13 16 21 21 21 13z m4078 -9 c8 -10 6
-13 -7 -13 -11 0 -17 6 -14 13 3 7 6 13 8 13 1 0 7 -6 13 -13z m-4274 -5 c3
-5 -1 -9 -9 -9 -8 0 -15 4 -15 9 0 4 4 8 9 8 6 0 12 -4 15 -8z m116 -6 c-7 -7
-13 -7 -20 0 -6 6 -3 10 10 10 13 0 16 -4 10 -10z m320 -1 c-10 -12 -10 -18 1
-32 12 -17 12 -17 -6 -1 -15 14 -16 20 -5 32 7 9 15 16 17 16 3 0 0 -7 -7 -15z
m2872 -4 c-5 -14 -4 -14 14 -1 18 14 18 14 1 -6 -9 -11 -14 -24 -10 -27 3 -4
1 -7 -6 -7 -7 0 -11 6 -8 13 2 6 1 19 -4 28 -5 10 -3 16 6 16 8 0 11 -7 7 -16z
m126 -5 c-2 -1 -12 -8 -23 -16 -18 -14 -19 -14 -7 2 8 10 10 23 6 30 -6 9 -3
9 9 -1 10 -8 16 -14 15 -15z m354 5 c-5 -14 -4 -14 14 -1 18 14 18 14 2 -5
-23 -27 -23 -27 -10 -50 9 -17 7 -21 -8 -21 -10 0 -16 5 -12 11 9 14 10 47 1
66 -5 10 -3 16 6 16 8 0 11 -7 7 -16z m88 15 c0 -2 -7 -7 -16 -10 -8 -3 -12
-2 -9 4 6 10 25 14 25 6z m115 -14 c-3 -3 -11 0 -18 7 -9 10 -8 11 6 5 10 -3
15 -9 12 -12z m240 9 c3 -6 -3 -14 -13 -20 -14 -7 -19 -6 -19 4 0 7 7 11 15 7
10 -3 13 -1 8 6 -4 7 -5 12 -2 12 3 0 7 -4 11 -9z m-3930 -20 c-9 -8 -36 -10
-30 -2 2 4 11 8 20 8 8 0 13 -3 10 -6z m40 -1 c3 -6 -1 -7 -9 -4 -18 7 -21 14
-7 14 6 0 13 -4 16 -10z m3299 -18 c3 -5 -1 -9 -9 -9 -8 0 -11 5 -8 10 4 6 0
8 -9 5 -8 -4 -15 0 -15 7 0 10 5 11 18 4 10 -5 20 -13 23 -17z m86 18 c-8 -5
-19 -10 -25 -10 -5 0 -3 5 5 10 8 5 20 10 25 10 6 0 3 -5 -5 -10z m147 -5 c0
-8 -4 -12 -9 -9 -5 3 -6 10 -3 15 9 13 12 11 12 -6z m37 7 c3 -5 -1 -9 -9 -9
-8 0 -12 4 -9 9 3 4 7 8 9 8 2 0 6 -4 9 -8z m401 -2 c3 -5 1 -10 -4 -10 -6 0
-11 5 -11 10 0 6 2 10 4 10 3 0 8 -4 11 -10z m-3839 -25 c-1 -8 -5 -17 -8 -21
-5 -4 -4 16 1 34 3 9 9 -1 7 -13z m44 9 c0 -8 -19 -13 -24 -6 -3 5 1 9 9 9 8
0 15 -2 15 -3z m2922 -1 c-10 -4 -10 -8 0 -21 12 -15 11 -16 -4 -3 -19 14 -15
32 5 30 8 0 8 -2 -1 -6z m798 3 c0 -2 -7 -7 -16 -10 -8 -3 -12 -2 -9 4 6 10
25 14 25 6z m41 -11 c-4 -5 -7 -22 -6 -38 1 -15 -5 -33 -13 -40 -13 -10 -14
-9 -7 3 12 19 14 50 4 70 -5 11 -2 16 11 16 12 0 16 -4 11 -11z m-4194 -13
c-10 -10 -16 -21 -15 -23 2 -2 1 -3 -1 -1 -3 1 -6 9 -7 17 -1 8 2 13 6 10 5
-3 11 -1 15 5 3 5 9 10 12 10 3 0 -1 -8 -10 -18z m3283 3 c-6 -8 -9 -18 -6
-23 3 -5 -1 -9 -9 -9 -8 0 -11 5 -8 11 10 19 25 36 30 36 3 0 0 -7 -7 -15z
m480 0 c-7 -8 -17 -15 -23 -15 -6 0 -2 7 9 15 25 19 30 19 14 0z m107 9 c-3
-3 -12 -4 -19 -1 -8 3 -5 6 6 6 11 1 17 -2 13 -5z m90 0 c-3 -3 -12 -4 -19 -1
-8 3 -5 6 6 6 11 1 17 -2 13 -5z m56 -8 c11 1 16 0 13 -4 -13 -12 -36 -10 -48
6 -11 15 -11 15 2 6 8 -6 23 -10 33 -8z m-3852 -13 c13 -17 13 -17 -6 -3 -11
8 -22 16 -24 17 -2 2 0 3 6 3 6 0 17 -8 24 -17z m123 5 c-3 -4 -11 -5 -19 -1
-21 7 -19 12 4 10 11 0 18 -5 15 -9z m3101 -40 c-1 -24 2 -48 6 -53 5 -7 -1
-11 -14 -12 -12 -1 -17 1 -11 5 5 4 9 30 9 59 -1 28 1 50 5 48 3 -2 5 -23 5
-47z m119 21 c-2 -4 0 -10 6 -14 5 -3 10 -12 10 -18 -1 -17 -24 24 -27 48 -2
16 -1 17 6 5 5 -8 8 -17 5 -21z m156 16 c0 -2 -6 -5 -13 -8 -8 -3 -14 1 -14 8
0 7 6 11 14 8 7 -3 13 -6 13 -8z m250 5 c0 -5 -4 -10 -10 -10 -5 0 -10 5 -10
10 0 6 5 10 10 10 6 0 10 -4 10 -10z m-677 -13 c3 -7 -3 -13 -14 -13 -13 0
-15 3 -7 13 6 7 12 13 13 13 2 0 5 -6 8 -13z m-3285 -17 c-7 -10 -14 -17 -17
-15 -4 4 18 35 25 35 2 0 -1 -9 -8 -20z m3489 14 c-3 -3 -12 -4 -19 -1 -8 3
-5 6 6 6 11 1 17 -2 13 -5z m146 -7 c-4 -7 1 -8 13 -3 15 6 17 5 6 -5 -10 -11
-15 -10 -28 2 -13 14 -13 16 0 16 8 0 12 -5 9 -10z m367 9 c0 -2 -7 -7 -16
-10 -8 -3 -12 -2 -9 4 6 10 25 14 25 6z m34 -5 c3 -5 -2 -15 -12 -22 -15 -13
-16 -12 -4 3 10 13 10 17 0 21 -9 4 -9 6 -1 6 6 1 14 -3 17 -8z m122 -10 c-13
-12 -18 -13 -28 -2 -11 10 -9 11 6 5 12 -5 17 -4 13 3 -3 5 1 10 9 10 13 0 13
-2 0 -16z m-3819 -6 c0 -8 -4 -12 -9 -9 -5 3 -6 10 -3 15 9 13 12 11 12 -6z
m3053 0 c-14 -17 -30 -20 -30 -4 0 5 4 8 9 4 5 -3 12 -1 16 5 3 5 9 10 12 10
3 0 0 -7 -7 -15z m417 9 c-3 -3 -12 -4 -19 -1 -8 3 -5 6 6 6 11 1 17 -2 13 -5z
m-3837 -9 c0 -1 -10 -10 -22 -21 -14 -12 -18 -13 -10 -3 6 9 10 18 7 21 -3 2
2 5 10 5 8 0 15 -1 15 -2z m244 -3 c2 -4 -5 -9 -17 -9 -17 -2 -19 0 -7 7 18
12 18 12 24 2z m3298 -10 c3 -11 0 -19 -7 -19 -7 0 -10 8 -7 19 2 10 6 18 7
18 1 0 5 -8 7 -18z m22 2 c3 -8 2 -12 -4 -9 -6 3 -10 10 -10 16 0 14 7 11 14
-7z m357 -1 c13 -17 13 -17 -6 -3 -11 8 -22 16 -24 17 -2 2 0 3 6 3 6 0 17 -8
24 -17z m182 -1 c14 -15 15 -19 2 -19 -8 0 -11 5 -8 10 4 6 0 8 -10 4 -11 -4
-14 -2 -10 9 7 18 7 18 26 -4z m-3792 -9 c13 -16 12 -17 -3 -4 -10 7 -18 15
-18 17 0 8 8 3 21 -13z m3394 -11 c-1 -9 1 -22 6 -27 5 -7 0 -11 -14 -12 -12
-1 -17 1 -11 5 6 4 10 19 9 34 -1 15 2 25 6 23 4 -3 6 -13 4 -23z m-3597 -1
c-7 -9 -13 -18 -15 -20 -1 -2 -1 5 0 16 0 11 7 20 14 20 10 0 10 -4 1 -16z
m3142 9 c0 -5 -2 -10 -4 -10 -3 0 -8 5 -11 10 -3 6 -1 10 4 10 6 0 11 -4 11
-10z m61 -5 c-4 -5 -7 -22 -6 -38 1 -15 -5 -33 -13 -40 -13 -10 -14 -9 -7 3
12 19 14 50 4 70 -5 11 -2 16 11 16 12 0 16 -4 11 -11z m599 0 c0 -1 -10 -10
-22 -21 -17 -14 -20 -15 -9 -2 7 9 10 22 6 27 -3 7 0 8 9 5 9 -3 16 -7 16 -9z
m280 5 c0 -5 -4 -10 -10 -10 -5 0 -10 5 -10 10 0 6 5 10 10 10 6 0 10 -4 10
-10z m-4130 -25 c13 -14 21 -25 18 -25 -2 0 -15 11 -28 25 -13 14 -21 25 -18
25 2 0 15 -11 28 -25z m180 10 c-7 -9 -15 -13 -18 -10 -3 3 -12 -1 -21 -8 -14
-11 -14 -10 -2 5 7 10 17 16 21 13 5 -3 11 -1 15 5 3 5 9 10 12 10 3 0 0 -7
-7 -15z m127 2 c0 -7 -9 -14 -20 -14 -19 -2 -19 -2 -1 12 11 8 19 15 20 15 0
0 1 -6 1 -13z m3626 -2 c9 2 17 -1 17 -7 0 -5 -6 -8 -12 -5 -7 2 -19 -3 -26
-12 -8 -9 -11 -10 -7 -3 4 7 1 21 -7 30 -11 15 -11 15 2 6 8 -6 23 -10 33 -9z
m53 -4 c0 -16 -3 -17 -14 -9 -12 10 -7 19 13 28 1 0 1 -9 1 -19z m-679 -5 c0
-8 -6 -12 -15 -9 -11 5 -11 7 0 14 7 5 13 9 14 9 0 0 1 -6 1 -14z m218 -41 c2
-26 1 -44 -2 -41 -3 3 -7 26 -8 51 -2 26 -1 44 2 41 3 -3 7 -26 8 -51z m80 44
c3 -3 -6 -5 -19 -5 -14 1 -28 4 -31 7 -3 3 6 5 19 5 14 -1 28 -4 31 -7z m102
-11 c-3 -8 -6 -5 -6 6 -1 11 2 17 5 13 3 -3 4 -12 1 -19z m-341 -4 c-3 -21
-33 -39 -33 -20 0 8 7 12 14 9 8 -3 13 -2 12 3 -2 13 0 24 5 24 2 0 3 -7 2
-16z m767 3 c3 -7 -3 -13 -14 -13 -13 0 -15 3 -7 13 6 7 12 13 13 13 2 0 5 -6
8 -13z m-679 -12 c-4 -8 -11 -15 -16 -15 -6 0 -5 6 2 15 7 8 14 15 16 15 2 0
1 -7 -2 -15z m547 -8 c-10 -9 -11 -8 -5 6 3 10 9 15 12 12 3 -3 0 -11 -7 -18z
m84 5 c-3 -3 -11 0 -18 7 -9 10 -8 11 6 5 10 -3 15 -9 12 -12z m165 11 c0 -5
-5 -15 -10 -23 -7 -12 -9 -10 -7 8 1 19 17 33 17 15z m-3986 -33 c-6 -6 -10
-3 -10 10 0 13 4 16 10 10 7 -7 7 -13 0 -20z m3519 15 c-3 -9 -8 -14 -10 -11
-3 3 -2 9 2 15 9 16 15 13 8 -4z m-3808 -4 c-9 -8 -36 -10 -30 -2 2 4 11 8 20
8 8 0 13 -3 10 -6z m155 -16 c14 -19 14 -19 -2 -6 -10 7 -18 18 -18 24 0 6 1
8 3 6 1 -2 9 -13 17 -24z m4057 3 c-3 -8 -6 -5 -6 6 -1 11 2 17 5 13 3 -3 4
-12 1 -19z m-224 -1 c3 -8 -1 -14 -8 -14 -7 0 -11 6 -8 14 3 7 6 13 8 13 2 0
5 -6 8 -13z m127 9 c0 -2 -7 -9 -15 -16 -13 -11 -14 -10 -9 4 5 14 24 23 24
12z m-3915 -16 c-3 -5 -12 -10 -18 -10 -7 0 -6 4 3 10 19 12 23 12 15 0z m32
-12 c2 -17 0 -19 -7 -8 -5 8 -6 18 -4 22 8 12 10 10 11 -14z m3163 18 c0 -2
-7 -7 -16 -10 -8 -3 -12 -2 -9 4 6 10 25 14 25 6z m43 -13 c-4 -10 -9 -11 -19
-2 -18 15 -18 15 5 15 11 0 17 -5 14 -13z m42 7 c3 -6 -1 -7 -9 -4 -18 7 -21
14 -7 14 6 0 13 -4 16 -10z m110 -8 c-3 -3 -11 0 -18 7 -9 10 -8 11 6 5 10 -3
15 -9 12 -12z m80 -9 c-1 -16 3 -35 9 -43 9 -13 9 -13 -5 -3 -12 10 -18 50
-10 71 4 10 8 -3 6 -25z m204 10 c-12 -14 -12 -16 2 -11 9 4 16 1 16 -7 0 -9
-6 -11 -16 -6 -9 5 -22 6 -28 4 -7 -3 -13 0 -13 7 0 6 4 9 9 6 5 -3 14 1 21 9
7 8 15 15 17 15 3 0 -1 -8 -8 -17z m281 -3 c-4 -8 -6 -25 -4 -37 2 -12 0 -24
-4 -27 -4 -2 -7 10 -7 27 1 18 -2 37 -6 42 -5 7 0 11 11 11 13 0 16 -4 10 -16z
m-330 -5 c0 -1 -6 -7 -13 -13 -10 -8 -13 -6 -13 7 0 11 6 17 13 14 7 -3 13 -6
13 -8z m417 -7 c-3 -8 -6 -5 -6 6 -1 11 2 17 5 13 3 -3 4 -12 1 -19z m-4150
-5 c0 -10 -4 -10 -16 -1 -9 7 -18 13 -20 15 -2 1 5 1 16 0 11 0 20 -7 20 -14z
m188 7 c-3 -5 -12 -10 -18 -10 -7 0 -6 4 3 10 19 12 23 12 15 0z m51 -7 c-1
-7 -6 -16 -10 -20 -4 -4 -6 -1 -4 7 2 8 -3 14 -9 13 -7 -2 -13 1 -13 6 0 6 8
9 19 8 10 0 18 -7 17 -14z m2909 7 c3 -6 -1 -7 -9 -4 -18 7 -21 14 -7 14 6 0
13 -4 16 -10z m533 -10 c2 -10 0 -11 -5 -4 -4 5 -25 10 -45 9 -20 -1 -35 2
-33 5 8 13 79 4 83 -10z m253 -7 c-12 -20 -14 -14 -5 12 4 9 9 14 11 11 3 -2
0 -13 -6 -23z m180 4 c-10 -9 -11 -8 -5 6 3 10 9 15 12 12 3 -3 0 -11 -7 -18z
m65 -3 c1 -9 0 -13 -4 -10 -3 4 -7 14 -8 22 -1 9 0 13 4 10 3 -4 7 -14 8 -22z
m-4235 -7 c-6 -8 -7 -18 -3 -22 4 -5 1 -5 -6 -1 -10 6 -10 11 -1 22 6 8 14 14
16 14 3 0 0 -6 -6 -13z m3323 1 c-3 -4 -13 -12 -23 -17 -13 -7 -18 -6 -18 4 0
7 7 11 15 7 9 -3 13 -1 9 5 -3 5 0 10 8 10 8 0 12 -4 9 -9z m76 2 c0 -5 -4
-10 -10 -10 -5 0 -10 5 -10 10 0 6 5 10 10 10 6 0 10 -4 10 -10z m73 -3 c-4
-7 1 -8 13 -3 15 6 17 5 6 -5 -10 -11 -15 -10 -28 2 -13 14 -13 16 0 16 8 0
12 -5 9 -10z m94 7 c-3 -3 -12 -4 -19 -1 -8 3 -5 6 6 6 11 1 17 -2 13 -5z
m353 -9 c-5 -7 -6 -15 -2 -20 4 -4 -3 -2 -15 4 -27 14 -31 23 -6 14 10 -4 14
-2 10 4 -3 5 0 10 8 10 10 0 12 -4 5 -12z m122 -7 c-2 -10 -6 -18 -7 -18 -1 0
-5 8 -7 18 -3 11 0 19 7 19 7 0 10 -8 7 -19z m-3908 -18 c-6 -6 -10 -3 -10 10
0 13 4 16 10 10 7 -7 7 -13 0 -20z m-168 8 c4 -6 3 -8 -4 -4 -5 3 -13 0 -15
-6 -3 -8 -6 -6 -6 5 -1 19 14 23 25 5z m3490 0 c5 -7 3 -8 -6 -3 -9 6 -12 4
-8 -7 4 -8 0 -15 -7 -15 -10 0 -11 5 -4 19 11 21 15 22 25 6z m158 -5 c3 -8 1
-11 -5 -8 -5 4 -18 1 -27 -7 -15 -11 -15 -11 -5 3 7 9 11 18 8 21 -3 2 2 5 10
5 8 0 17 -7 19 -14z m152 -2 c1 -6 0 -7 -3 -1 -2 5 -9 8 -13 5 -5 -3 -11 -1
-14 4 -4 5 2 8 11 7 9 -2 18 -8 19 -15z m109 -19 c-1 -9 1 -22 6 -27 5 -7 0
-11 -14 -12 -12 -1 -17 1 -12 5 13 9 13 42 0 62 -7 13 -6 13 7 2 9 -7 15 -21
13 -30z m322 32 c-3 -3 -11 -6 -19 -8 -7 -1 -20 -6 -28 -11 -12 -7 -13 -6 -3
6 6 8 22 15 34 16 11 1 19 0 16 -3z m-682 -25 c-3 -12 -7 -24 -10 -27 -3 -3
-3 5 -1 19 6 30 5 29 10 29 3 0 3 -10 1 -21z m520 -7 c-3 -3 -11 0 -18 7 -9
10 -8 11 6 5 10 -3 15 -9 12 -12z m194 -3 c-12 -24 -26 -31 -26 -14 0 8 5 11
10 8 6 -4 8 0 5 9 -4 8 0 15 7 15 10 0 11 -5 4 -18z m-973 -8 c0 -16 -3 -17
-14 -9 -12 10 -7 19 13 28 1 0 1 -9 1 -19z m54 4 c0 -1 -6 -7 -13 -13 -10 -8
-13 -6 -13 7 0 11 6 17 13 14 7 -3 13 -6 13 -8z m67 0 c0 -8 -5 -11 -10 -8 -7
4 -8 -1 -3 -13 6 -15 5 -16 -5 -7 -10 10 -9 15 1 28 15 19 17 19 17 0z m270
-7 c-3 -8 -6 -5 -6 6 -1 11 2 17 5 13 3 -3 4 -12 1 -19z m310 16 c-3 -3 -12
-4 -19 -1 -8 3 -5 6 6 6 11 1 17 -2 13 -5z m120 0 c-3 -3 -12 -4 -19 -1 -8 3
-5 6 6 6 11 1 17 -2 13 -5z m77 -35 c-3 -5 -11 -9 -17 -8 -8 0 -8 2 1 6 10 4
9 10 -5 27 l-18 21 22 -19 c13 -10 20 -23 17 -27z m-934 21 c0 -5 -2 -10 -4
-10 -3 0 -8 5 -11 10 -3 6 -1 10 4 10 6 0 11 -4 11 -10z m120 0 c0 -5 -4 -10
-10 -10 -5 0 -10 5 -10 10 0 6 5 10 10 10 6 0 10 -4 10 -10z m398 -10 c2 -9 0
-11 -5 -5 -12 15 -47 12 -69 -5 -17 -14 -18 -13 -7 1 7 9 11 18 8 21 -3 2 12
4 32 3 23 0 38 -6 41 -15z m97 9 c3 -3 -6 -5 -19 -5 -14 1 -28 4 -31 7 -3 3 6
5 19 5 14 -1 28 -4 31 -7z m165 1 c0 -5 -4 -10 -10 -10 -5 0 -10 5 -10 10 0 6
5 10 10 10 6 0 10 -4 10 -10z m-527 -27 c-3 -7 -6 -13 -8 -13 -2 0 -5 6 -8 13
-3 8 1 14 8 14 7 0 11 -6 8 -14z m91 5 c-3 -4 -13 -12 -23 -17 -13 -7 -18 -6
-18 4 0 7 7 11 15 7 9 -3 13 -1 9 5 -3 5 0 10 8 10 8 0 12 -4 9 -9z m360 -3
c-4 -8 -11 -15 -16 -15 -6 0 -5 6 2 15 7 8 14 15 16 15 2 0 1 -7 -2 -15z m123
9 c-3 -3 -12 -4 -19 -1 -8 3 -5 6 6 6 11 1 17 -2 13 -5z m123 -19 c-6 -8 -8
-20 -4 -27 6 -10 3 -9 -9 1 -16 13 -16 14 0 27 24 18 28 17 13 -1z m-736 -4
c-9 -9 -34 -9 -34 -1 0 5 9 8 20 7 10 -1 17 -3 14 -6z m211 -1 c3 -6 -1 -7 -9
-4 -18 7 -21 14 -7 14 6 0 13 -4 16 -10z m71 -15 c-1 -13 -4 -27 -7 -30 -5 -4
-4 41 0 53 4 10 8 -2 7 -23z m91 3 c-3 -8 -6 -5 -6 6 -1 11 2 17 5 13 3 -3 4
-12 1 -19z m244 5 c13 -16 12 -17 -3 -4 -10 7 -18 15 -18 17 0 8 8 3 21 -13z
m-681 -9 c0 -8 -19 -13 -24 -6 -3 5 1 9 9 9 8 0 15 -2 15 -3z m513 -11 c-4
-10 -9 -11 -19 -2 -18 15 -18 15 5 15 11 0 17 -5 14 -13z m42 7 c3 -6 -1 -7
-9 -4 -18 7 -21 14 -7 14 6 0 13 -4 16 -10z m190 -32 c1 -22 -3 -35 -11 -35
-7 0 -10 5 -6 11 10 17 9 50 -3 59 -6 5 -4 7 5 5 9 -3 15 -18 15 -40z m-618
10 c0 -13 -1 -18 -4 -11 -2 7 -11 9 -19 6 -8 -3 -14 0 -14 7 0 6 4 9 9 5 5 -3
12 -1 16 5 9 14 11 13 12 -12z m53 7 c0 -1 -6 -7 -13 -13 -10 -8 -13 -6 -13 7
0 11 6 17 13 14 7 -3 13 -6 13 -8z m54 -3 c3 -5 -1 -9 -9 -9 -8 0 -15 4 -15 9
0 4 4 8 9 8 6 0 12 -4 15 -8z m32 -17 c1 -8 -1 -17 -5 -19 -4 -3 -7 6 -7 19 0
25 8 25 12 0z m44 10 c-10 -12 -10 -15 0 -15 8 0 11 -3 7 -6 -3 -3 -11 -3 -17
1 -8 5 -8 11 1 21 6 8 14 14 16 14 3 0 0 -7 -7 -15z m405 4 c3 -3 -13 -5 -35
-4 -22 1 -40 -3 -40 -8 0 -6 -3 -8 -6 -4 -3 3 -4 10 -1 15 6 9 72 10 82 1z
m-205 -19 c0 -5 -4 -10 -10 -10 -5 0 -10 5 -10 10 0 6 5 10 10 10 6 0 10 -4
10 -10z m73 -3 c-4 -6 0 -8 10 -4 11 4 14 2 10 -9 -7 -18 -7 -18 -26 4 -14 15
-15 19 -2 19 8 0 11 -5 8 -10z m207 9 c0 -2 -7 -7 -16 -10 -8 -3 -12 -2 -9 4
6 10 25 14 25 6z m37 -2 c-3 -3 -12 -4 -19 -1 -8 3 -5 6 6 6 11 1 17 -2 13 -5z
m-167 -19 c-7 -8 -17 -12 -23 -8 -6 4 -8 0 -5 -8 4 -10 -1 -15 -13 -15 -17 0
-17 2 -2 18 8 10 19 15 24 13 4 -3 10 -1 14 5 3 5 9 10 12 10 3 0 0 -7 -7 -15z
m-4279 -12 c13 -16 12 -17 -3 -4 -10 7 -18 15 -18 17 0 8 8 3 21 -13z m3929 0
c0 -3 -7 -3 -15 1 -8 3 -15 0 -15 -6 0 -6 -3 -9 -6 -5 -11 10 6 26 21 20 8 -3
15 -7 15 -10z m120 7 c0 -5 -4 -10 -10 -10 -5 0 -10 5 -10 10 0 6 5 10 10 10
6 0 10 -4 10 -10z m95 -10 c4 -6 -1 -7 -11 -3 -10 4 -15 2 -11 -4 3 -5 0 -10
-8 -10 -11 0 -12 4 -4 14 14 15 26 17 34 3z m-172 -17 c-4 -10 -9 -11 -19 -2
-18 15 -18 15 5 15 11 0 17 -5 14 -13z m112 -1 c-3 -3 -11 0 -18 7 -9 10 -8
11 6 5 10 -3 15 -9 12 -12z m242 -2 c1 -11 -2 -20 -5 -20 -4 0 -8 9 -9 20 -1
11 2 20 5 20 4 0 8 -9 9 -20z m88 10 c-3 -5 -12 -10 -18 -10 -7 0 -6 4 3 10
19 12 23 12 15 0z m-38 -6 c-3 -3 -12 -4 -19 -1 -8 3 -5 6 6 6 11 1 17 -2 13
-5z m-4467 -8 c0 -2 -7 -7 -16 -10 -8 -3 -12 -2 -9 4 6 10 25 14 25 6z m4170
-11 c0 -2 -6 -5 -13 -8 -8 -3 -14 1 -14 8 0 7 6 11 14 8 7 -3 13 -6 13 -8z
m-70 -11 c0 -8 -19 -13 -24 -6 -3 5 1 9 9 9 8 0 15 -2 15 -3z m79 -11 c-12
-15 -12 -16 3 -11 17 7 20 -14 3 -29 -4 -4 -5 -3 -2 3 4 7 0 15 -9 18 -13 5
-14 9 -4 21 7 8 15 15 17 15 3 0 -1 -8 -8 -17z m113 -3 c-12 -10 -19 -20 -17
-24 3 -3 2 -4 -2 -1 -15 11 -11 34 5 28 9 -4 13 -2 9 4 -3 5 1 10 10 10 13 0
12 -4 -5 -17z m80 1 c-5 -14 -4 -14 14 -1 18 14 18 14 2 -5 -23 -27 -23 -27
-10 -50 9 -17 7 -21 -8 -21 -10 0 -16 5 -12 11 9 14 10 47 1 66 -5 10 -3 16 6
16 8 0 11 -7 7 -16z m128 -13 c0 -6 -3 -8 -7 -5 -3 4 -13 1 -22 -6 -14 -11
-14 -10 -2 6 15 20 31 22 31 5z m-250 -2 c0 -2 -7 -7 -16 -10 -8 -3 -12 -2 -9
4 6 10 25 14 25 6z m180 -31 c-7 -8 -17 -15 -23 -15 -6 0 -2 7 9 15 25 19 30
19 14 0z m-135 -15 c16 -17 16 -20 3 -15 -9 4 -19 13 -22 21 -7 19 -2 18 19
-6z m132 -16 c-3 -3 -12 -4 -19 -1 -8 3 -5 6 6 6 11 1 17 -2 13 -5z m31 -41
c-6 -7 -12 -13 -13 -13 -2 0 -5 6 -8 13 -3 7 3 13 14 13 13 0 15 -3 7 -13z
m-24 -19 c3 -8 2 -12 -4 -9 -6 3 -10 10 -10 16 0 14 7 11 14 -7z m-4504 -110
c0 -8 -19 -13 -24 -6 -3 5 1 9 9 9 8 0 15 -2 15 -3z m4681 -51 c13 -17 13 -17
-6 -3 -11 8 -22 16 -24 17 -2 2 0 3 6 3 6 0 17 -8 24 -17z m-5096 -81 c-3 -3
-11 0 -18 7 -9 10 -8 11 6 5 10 -3 15 -9 12 -12z m101 -38 c1 -9 0 -13 -4 -10
-3 4 -7 14 -8 22 -1 9 0 13 4 10 3 -4 7 -14 8 -22z m638 -4 c-6 -6 -10 -3 -10
10 0 13 4 16 10 10 7 -7 7 -13 0 -20z m79 15 c-3 -9 -8 -14 -10 -11 -3 3 -2 9
2 15 9 16 15 13 8 -4z m-543 1 c0 -2 -8 -10 -17 -17 -16 -13 -17 -12 -4 4 13
16 21 21 21 13z m5027 -51 c0 -8 -4 -12 -9 -9 -5 3 -6 10 -3 15 9 13 12 11 12
-6z m-5483 -61 c3 -8 2 -12 -4 -9 -6 3 -10 10 -10 16 0 14 7 11 14 -7z m-399
-22 c-3 -3 -11 0 -18 7 -9 10 -8 11 6 5 10 -3 15 -9 12 -12z m349 -30 c3 -5
-1 -9 -9 -9 -8 0 -12 4 -9 9 3 4 7 8 9 8 2 0 6 -4 9 -8z m92 -17 c-1 -8 -5
-17 -8 -21 -5 -4 -4 16 1 34 3 9 9 -1 7 -13z m-150 -67 c3 -4 -1 -5 -10 -4 -8
1 -18 5 -22 8 -3 4 1 5 10 4 8 -1 18 -5 22 -8z m5627 -53 c-3 -9 -8 -14 -10
-11 -3 3 -2 9 2 15 9 16 15 13 8 -4z m-5640 -20 c-3 -9 -8 -14 -10 -11 -3 3
-2 9 2 15 9 16 15 13 8 -4z m5203 -11 c1 -9 0 -13 -4 -10 -3 4 -7 14 -8 22 -1
9 0 13 4 10 3 -4 7 -14 8 -22z m84 22 c0 -2 -8 -10 -17 -17 -16 -13 -17 -12
-4 4 13 16 21 21 21 13z m-400 -160 c0 -2 -8 -10 -17 -17 -16 -13 -17 -12 -4
4 13 16 21 21 21 13z m-4070 -10 c0 -2 -8 -10 -17 -17 -16 -13 -17 -12 -4 4
13 16 21 21 21 13z m4141 -39 c-10 -9 -11 -8 -5 6 3 10 9 15 12 12 3 -3 0 -11
-7 -18z m273 -5 c3 -5 -1 -9 -9 -9 -8 0 -12 4 -9 9 3 4 7 8 9 8 2 0 6 -4 9 -8z
m-5663 -39 c13 -16 12 -17 -3 -4 -17 13 -22 21 -14 21 2 0 10 -8 17 -17z
m1560 0 c13 -16 12 -17 -3 -4 -17 13 -22 21 -14 21 2 0 10 -8 17 -17z m76 2
c0 -8 -4 -12 -9 -9 -5 3 -6 10 -3 15 9 13 12 11 12 -6z m-712 -5 c3 -6 -1 -7
-9 -4 -18 7 -21 14 -7 14 6 0 13 -4 16 -10z m-927 -65 c-3 -3 -9 2 -12 12 -6
14 -5 15 5 6 7 -7 10 -15 7 -18z m1520 0 c-3 -3 -9 2 -12 12 -6 14 -5 15 5 6
7 -7 10 -15 7 -18z m4438 -10 c-1 -8 -5 -17 -8 -21 -5 -4 -4 16 1 34 3 9 9 -1
7 -13z m158 -15 c-6 -6 -10 -3 -10 10 0 13 4 16 10 10 7 -7 7 -13 0 -20z
m-5580 12 c3 -5 -1 -9 -9 -9 -8 0 -12 4 -9 9 3 4 7 8 9 8 2 0 6 -4 9 -8z
m4732 -4 c3 -4 -1 -5 -10 -4 -8 1 -18 5 -22 8 -3 4 1 5 10 4 8 -1 18 -5 22 -8z
m245 -31 c-10 -9 -11 -8 -5 6 3 10 9 15 12 12 3 -3 0 -11 -7 -18z m525 -22
c-1 -8 -5 -17 -8 -21 -5 -4 -4 16 1 34 3 9 9 -1 7 -13z m-5279 -40 c0 -8 -4
-12 -9 -9 -5 3 -6 10 -3 15 9 13 12 11 12 -6z m4480 0 c0 -8 -4 -12 -9 -9 -5
3 -6 10 -3 15 9 13 12 11 12 -6z m-4773 -103 c3 -5 -1 -9 -9 -9 -8 0 -12 4 -9
9 3 4 7 8 9 8 2 0 6 -4 9 -8z m5450 -68 c3 -8 2 -12 -4 -9 -6 3 -10 10 -10 16
0 14 7 11 14 -7z m-4760 -64 c-6 -6 -10 -3 -10 10 0 13 4 16 10 10 7 -7 7 -13
0 -20z m79 15 c-3 -9 -8 -14 -10 -11 -3 3 -2 9 2 15 9 16 15 13 8 -4z m4484
-110 c0 -8 -4 -12 -9 -9 -5 3 -6 10 -3 15 9 13 12 11 12 -6z m154 -48 c-10 -9
-11 -8 -5 6 3 10 9 15 12 12 3 -3 0 -11 -7 -18z m-76 4 c3 -5 2 -12 -3 -15 -5
-3 -9 1 -9 9 0 17 3 19 12 6z m-884 -44 c-10 -9 -11 -8 -5 6 3 10 9 15 12 12
3 -3 0 -11 -7 -18z m203 7 c3 -8 2 -12 -4 -9 -6 3 -10 10 -10 16 0 14 7 11 14
-7z m451 -53 c-9 -8 -36 -10 -30 -2 2 4 11 8 20 8 8 0 13 -3 10 -6z m-4 -78
c13 -16 12 -17 -3 -4 -10 7 -18 15 -18 17 0 8 8 3 21 -13z m-4223 -288 c-3 -3
-9 2 -12 12 -6 14 -5 15 5 6 7 -7 10 -15 7 -18z m-6 -19 c10 6 11 4 0 -7 -10
-11 -15 -10 -30 6 -15 17 -15 18 0 6 9 -7 23 -9 30 -5z m120 -11 c2 3 5 -1 5
-9 0 -8 -6 -12 -15 -8 -9 3 -13 1 -9 -5 3 -5 0 -10 -8 -10 -11 0 -12 4 -4 14
9 10 8 18 -2 31 -13 16 -13 16 7 -1 11 -9 23 -15 26 -12z m-92 -25 c0 -5 -4
-10 -10 -10 -5 0 -10 5 -10 10 0 6 5 10 10 10 6 0 10 -4 10 -10z m210 4 c0 -8
-19 -13 -24 -6 -3 5 1 9 9 9 8 0 15 -2 15 -3z m60 -13 c-5 -11 -15 -23 -21
-27 -6 -3 -3 5 6 20 20 30 30 35 15 7z m-73 -15 c2 -2 -9 -3 -26 -2 -16 0 -27
4 -25 8 4 7 43 3 51 -6z m20 -8 c-3 -8 -6 -5 -6 6 -1 11 2 17 5 13 3 -3 4 -12
1 -19z m154 5 c13 -16 12 -17 -3 -4 -10 7 -18 15 -18 17 0 8 8 3 21 -13z
m-368 -6 c3 -7 -3 -13 -14 -13 -13 0 -15 3 -7 13 6 7 12 13 13 13 2 0 5 -6 8
-13z m42 -7 c-3 -5 -12 -10 -18 -10 -7 0 -6 4 3 10 19 12 23 12 15 0z m310 1
c3 -6 -3 -14 -13 -20 -14 -7 -19 -6 -19 4 0 7 7 11 15 7 10 -3 13 -1 8 6 -4 7
-5 12 -2 12 3 0 7 -4 11 -9z m120 -8 c-1 -10 3 -25 9 -33 9 -13 9 -13 -6 -2
-9 8 -23 11 -30 7 -7 -4 -6 -1 3 7 9 7 14 19 12 26 -3 6 0 12 5 12 6 0 9 -8 7
-17z m-320 -30 c-1 -21 3 -41 9 -45 6 -4 1 -6 -11 -5 -12 0 -19 6 -15 12 4 5
7 22 8 38 2 31 3 37 7 37 2 0 3 -17 2 -37z m-98 13 c0 -8 -8 -11 -21 -8 -19 5
-19 6 0 13 10 4 19 8 20 8 0 1 1 -5 1 -13z m2893 10 c0 -2 -8 -10 -17 -17 -16
-13 -17 -12 -4 4 13 16 21 21 21 13z m140 -1 c0 -2 -6 -8 -13 -14 -10 -8 -14
-7 -14 2 0 8 6 14 14 14 7 0 13 -1 13 -2z m-2980 -40 c0 -2 -6 -5 -13 -8 -8
-3 -14 1 -14 8 0 7 6 11 14 8 7 -3 13 -6 13 -8z m306 -4 c0 -11 -5 -17 -13
-14 -10 4 -11 9 -2 19 15 18 15 18 15 -5z m209 4 c11 0 24 4 28 10 5 6 7 4 5
-5 -6 -18 -75 -22 -75 -4 0 7 5 10 11 6 6 -4 20 -7 31 -7z m147 1 c6 4 8 3 5
-3 -3 -5 -23 -9 -44 -8 -21 1 -42 -4 -46 -9 -5 -7 -7 -5 -4 4 2 10 15 15 35
14 18 0 32 4 33 10 0 6 3 5 6 -2 2 -6 10 -9 15 -6z m2024 -6 c0 -12 -4 -16 -9
-11 -5 5 -6 14 -3 20 10 15 12 14 12 -9z m-2801 -8 c-3 -3 -11 0 -18 7 -9 10
-8 11 6 5 10 -3 15 -9 12 -12z m263 -2 c2 -10 1 -11 -5 -4 -4 6 -24 10 -43 8
-19 -2 -29 1 -22 5 21 13 65 6 70 -9z m122 10 c0 -5 -4 -10 -10 -10 -5 0 -10
5 -10 10 0 6 5 10 10 10 6 0 10 -4 10 -10z m187 -12 c-3 -8 -6 -5 -6 6 -1 11
2 17 5 13 3 -3 4 -12 1 -19z m267 14 c3 -5 -1 -9 -9 -9 -8 0 -12 4 -9 9 3 4 7
8 9 8 2 0 6 -4 9 -8z m23 -14 c-3 -8 -6 -5 -6 6 -1 11 2 17 5 13 3 -3 4 -12 1
-19z m2107 14 c3 -5 -1 -9 -9 -9 -8 0 -12 4 -9 9 3 4 7 8 9 8 2 0 6 -4 9 -8z
m53 -7 c0 -8 -4 -12 -9 -9 -4 3 -8 9 -8 15 0 5 4 9 8 9 5 0 9 -7 9 -15z m63 5
c0 -5 -5 -10 -11 -10 -5 0 -7 5 -4 10 3 6 8 10 11 10 2 0 4 -4 4 -10z m40 4
c0 -8 -19 -13 -24 -6 -3 5 1 9 9 9 8 0 15 -2 15 -3z m-2210 -8 c0 -2 -7 -7
-16 -10 -8 -3 -12 -2 -9 4 6 10 25 14 25 6z m-592 -25 c-7 -9 -13 -17 -14 -19
-1 -1 -7 4 -14 13 -11 13 -10 14 5 9 11 -5 16 -4 12 3 -3 5 0 10 8 10 12 0 12
-3 3 -16z m197 -9 c-3 -3 1 -12 8 -21 11 -14 10 -14 -6 -2 -9 8 -15 16 -12 19
3 3 -1 12 -8 21 -11 14 -10 14 6 2 9 -8 15 -16 12 -19z m1962 21 c-4 -3 -2
-11 3 -18 7 -8 5 -12 -4 -12 -8 0 -12 7 -11 16 5 22 4 21 12 21 3 0 3 -3 0 -7z
m167 -5 c-3 -4 -9 -8 -15 -8 -5 0 -9 4 -9 8 0 5 7 9 15 9 8 0 12 -4 9 -9z
m116 2 c0 -5 -4 -10 -10 -10 -5 0 -10 5 -10 10 0 6 5 10 10 10 6 0 10 -4 10
-10z m80 -5 c-5 -7 -8 -14 -5 -17 3 -2 -2 -5 -10 -5 -10 0 -12 4 -5 12 5 7 8
14 5 17 -3 2 2 5 10 5 10 0 12 -4 5 -12z m37 0 c0 -8 -4 -12 -9 -9 -5 3 -6 10
-3 15 9 13 12 11 12 -6z m39 -11 c1 -9 0 -13 -4 -10 -3 4 -7 14 -8 22 -1 9 0
13 4 10 3 -4 7 -14 8 -22z m-2892 -3 c13 -14 14 -21 5 -27 -8 -5 -10 -3 -4 6
6 9 4 12 -6 8 -10 -4 -15 1 -15 13 0 23 -1 23 20 0z m513 -3 c-3 -8 -6 -5 -6
6 -1 11 2 17 5 13 3 -3 4 -12 1 -19z m77 -8 c-6 -6 -10 -3 -10 10 0 13 4 16
10 10 7 -7 7 -13 0 -20z m127 13 c13 -16 12 -17 -3 -4 -10 7 -18 15 -18 17 0
8 8 3 21 -13z m351 -15 c-8 -8 -9 -4 -5 13 4 13 8 18 11 10 2 -7 -1 -18 -6
-23z m1504 7 c1 -8 -1 -17 -5 -19 -4 -3 -7 6 -7 19 0 25 8 25 12 0z m-2361
-19 c0 -19 -3 -37 -6 -40 -4 -5 -4 62 0 72 4 10 7 -4 6 -32z m182 19 c0 -8 -4
-12 -9 -9 -5 3 -6 10 -3 15 9 13 12 11 12 -6z m70 -7 c-3 -8 -6 -5 -6 6 -1 11
2 17 5 13 3 -3 4 -12 1 -19z m313 18 c0 -3 -4 -8 -10 -11 -5 -3 -10 -1 -10 4
0 6 5 11 10 11 6 0 10 -2 10 -4z m1914 -5 c-7 -8 -54 -9 -49 -1 2 3 15 6 29 6
14 0 23 -2 20 -5z m86 -1 c0 -5 -2 -10 -4 -10 -3 0 -8 5 -11 10 -3 6 -1 10 4
10 6 0 11 -4 11 -10z m297 -5 c0 -8 -4 -12 -9 -9 -4 3 -8 9 -8 15 0 5 4 9 8 9
5 0 9 -7 9 -15z m-2742 -16 c-3 -12 -7 -24 -10 -27 -3 -3 -3 5 -1 19 6 30 5
29 10 29 3 0 3 -10 1 -21z m288 8 c3 -8 -1 -14 -8 -14 -7 0 -11 6 -8 14 3 7 6
13 8 13 2 0 5 -6 8 -13z m318 -4 c13 -16 12 -17 -3 -5 -9 8 -23 10 -29 6 -8
-4 -9 -3 -5 4 10 17 21 15 37 -5z m-878 -10 c-4 -10 -9 -11 -19 -2 -18 15 -18
15 5 15 11 0 17 -5 14 -13z m39 -1 c-3 -9 -1 -13 5 -9 5 3 10 0 10 -8 0 -17
-14 -10 -26 14 -7 13 -6 18 4 18 7 0 11 -7 7 -15z m2194 -7 c1 -8 -1 -17 -5
-19 -4 -3 -7 6 -7 19 0 25 8 25 12 0z m41 8 c0 -9 -4 -10 -14 -2 -7 6 -13 12
-13 14 0 1 6 2 13 2 8 0 14 -6 14 -14z m283 9 c0 -5 -7 -9 -15 -9 -8 0 -12 4
-9 9 3 4 9 8 15 8 5 0 9 -4 9 -8z m244 0 c3 -5 -1 -9 -9 -9 -8 0 -15 4 -15 9
0 4 4 8 9 8 6 0 12 -4 15 -8z m-2597 -8 c-3 -3 -12 -4 -19 -1 -8 3 -5 6 6 6
11 1 17 -2 13 -5z m170 -16 c-3 -8 -6 -5 -6 6 -1 11 2 17 5 13 3 -3 4 -12 1
-19z m279 3 c0 -11 -5 -17 -13 -14 -10 4 -11 9 -2 19 15 18 15 18 15 -5z m97
4 c32 0 60 -2 62 -5 2 -3 -26 -5 -62 -5 -50 0 -67 4 -70 15 -3 9 -1 11 4 4 4
-5 34 -10 66 -9z m223 -4 c0 -11 -5 -17 -11 -13 -5 3 -20 7 -33 8 -12 0 -25 4
-29 8 -4 4 4 5 18 3 14 -3 32 -1 40 4 8 5 14 9 14 9 1 0 1 -9 1 -19z m71 13
c-3 -3 -12 -4 -19 -1 -8 3 -5 6 6 6 11 1 17 -2 13 -5z m-927 -19 c-10 -12 -10
-15 0 -15 8 0 11 -3 7 -6 -3 -3 -11 -3 -17 1 -8 5 -8 11 1 21 6 8 14 14 16 14
3 0 0 -7 -7 -15z m237 -2 c0 -7 -5 -9 -11 -5 -17 10 -56 10 -56 -1 0 -6 -3 -8
-6 -4 -12 12 6 23 39 23 20 0 34 -5 34 -13z m263 7 c0 -5 -4 -10 -10 -10 -5 0
-10 5 -10 10 0 6 5 10 10 10 6 0 10 -4 10 -10z m1870 4 c0 -8 -19 -13 -24 -6
-3 5 1 9 9 9 8 0 15 -2 15 -3z m404 -3 c-8 -8 -34 -10 -38 -2 -3 4 6 7 19 7
14 0 22 -2 19 -5z m120 1 c3 -5 -1 -9 -9 -9 -8 0 -12 4 -9 9 3 4 7 8 9 8 2 0
6 -4 9 -8z m-3014 -22 c0 -5 -4 -10 -10 -10 -5 0 -10 5 -10 10 0 6 5 10 10 10
6 0 10 -4 10 -10z m492 -5 c7 4 6 1 -2 -7 -16 -13 -20 -45 -8 -63 4 -6 -2 -11
-12 -11 -13 0 -16 5 -11 16 10 20 8 51 -4 70 -7 13 -6 13 8 2 9 -8 22 -11 29
-7z m1908 3 c0 -4 -4 -8 -9 -8 -6 0 -12 4 -15 8 -3 5 1 9 9 9 8 0 15 -4 15 -9z
m280 -2 c-7 -7 -13 -7 -20 0 -6 6 -3 10 10 10 13 0 16 -4 10 -10z m284 2 c-3
-4 -9 -8 -15 -8 -5 0 -9 4 -9 8 0 5 7 9 15 9 8 0 12 -4 9 -9z m-2846 -24 c1
-1 -5 -7 -15 -15 -12 -10 -15 -10 -9 -1 4 7 2 20 -6 30 -12 16 -11 16 7 2 11
-8 21 -15 23 -16z m198 6 c0 -12 -4 -16 -9 -11 -5 5 -6 14 -3 20 10 15 12 14
12 -9z m479 -26 c0 -24 -6 -39 -15 -42 -10 -2 -11 0 -4 5 5 4 10 25 9 45 -1
20 2 35 5 33 4 -2 6 -21 5 -41z m199 32 c-3 -8 -13 -17 -22 -21 -13 -5 -13 -2
3 15 21 24 26 25 19 6z m1302 -1 c-1 -8 -5 -17 -8 -21 -5 -4 -4 16 1 34 3 9 9
-1 7 -13z m44 -6 c0 -5 -4 -9 -8 -9 -5 0 -9 7 -9 15 0 8 4 12 9 9 4 -3 8 -9 8
-15z m116 -5 c1 -9 0 -13 -4 -10 -3 4 -7 14 -8 22 -1 9 0 13 4 10 3 -4 7 -14
8 -22z m181 13 c0 -7 -11 -13 -23 -13 -12 0 -20 4 -18 8 3 5 9 6 14 3 5 -3 11
-1 15 5 8 13 12 13 12 -3z m82 0 c8 -10 7 -14 -2 -14 -8 0 -14 6 -14 14 0 7 1
13 2 13 2 0 8 -6 14 -13z m177 -2 c-1 -8 -5 -17 -8 -21 -5 -4 -4 16 1 34 3 9
9 -1 7 -13z m99 6 c3 -5 2 -12 -3 -15 -5 -3 -9 1 -9 9 0 17 3 19 12 6z m-2708
-23 c-3 -8 -6 -5 -6 6 -1 11 2 17 5 13 3 -3 4 -12 1 -19z m113 12 c0 -5 -4
-10 -10 -10 -5 0 -10 5 -10 10 0 6 5 10 10 10 6 0 10 -4 10 -10z m200 -15 c0
-2 -5 -7 -12 -11 -7 -5 -8 -3 -3 6 6 9 4 12 -7 8 -8 -4 -15 0 -15 7 0 10 5 11
19 4 10 -5 18 -12 18 -14z m51 2 c-10 -9 -11 -8 -5 6 3 10 9 15 12 12 3 -3 0
-11 -7 -18z m39 8 c11 -13 10 -14 -4 -9 -9 3 -16 10 -16 15 0 13 6 11 20 -6z
m197 -7 c-3 -8 -6 -5 -6 6 -1 11 2 17 5 13 3 -3 4 -12 1 -19z m1613 13 c0 -6
-4 -12 -8 -15 -5 -3 -9 1 -9 9 0 8 4 15 9 15 4 0 8 -4 8 -9z m357 -6 c0 -8 -4
-12 -9 -9 -4 3 -8 9 -8 15 0 5 4 9 8 9 5 0 9 -7 9 -15z m193 11 c0 -2 -8 -10
-17 -17 -16 -13 -17 -12 -4 4 13 16 21 21 21 13z m-2886 -24 c-6 -4 -10 -22
-8 -39 1 -18 -1 -33 -5 -33 -4 0 -7 12 -6 28 1 15 -2 32 -6 37 -5 7 0 11 14
12 12 1 17 -1 11 -5z m667 -9 c13 -16 12 -17 -3 -4 -10 7 -18 15 -18 17 0 8 8
3 21 -13z m1364 -1 c-3 -3 -11 0 -18 7 -9 10 -8 11 6 5 10 -3 15 -9 12 -12z
m485 8 c0 -5 -4 -10 -10 -10 -5 0 -10 5 -10 10 0 6 5 10 10 10 6 0 10 -4 10
-10z m-2663 -14 c0 -8 -6 -12 -15 -9 -11 5 -11 7 0 14 7 5 13 9 14 9 0 0 1 -6
1 -14z m340 1 c0 -13 -60 -18 -72 -5 -3 3 8 4 25 3 17 -1 33 1 36 6 7 13 11
11 11 -4z m56 -2 c-3 -9 -8 -14 -10 -11 -3 3 -2 9 2 15 9 16 15 13 8 -4z m124
1 c0 -8 -6 -12 -15 -9 -11 5 -11 7 0 14 7 5 13 9 14 9 0 0 1 -6 1 -14z m80 -1
c0 -8 -5 -11 -10 -8 -7 4 -8 -1 -3 -13 6 -15 5 -16 -5 -7 -10 10 -9 15 1 28
15 19 17 19 17 0z m110 -7 c-3 -8 -6 -5 -6 6 -1 11 2 17 5 13 3 -3 4 -12 1
-19z m130 0 c-3 -8 -6 -5 -6 6 -1 11 2 17 5 13 3 -3 4 -12 1 -19z m80 8 c0 -8
-8 -11 -21 -8 -19 5 -19 6 0 13 10 4 19 8 20 8 0 1 1 -5 1 -13z m1459 -11 c1
-8 -1 -17 -5 -19 -4 -3 -7 6 -7 19 0 25 8 25 12 0z m184 4 c0 -5 -4 -9 -8 -9
-5 0 -9 7 -9 15 0 8 4 12 9 9 4 -3 8 -9 8 -15z m55 12 c3 -5 2 -12 -3 -15 -5
-3 -9 1 -9 9 0 17 3 19 12 6z m82 -6 c0 -8 -4 -12 -9 -9 -5 3 -6 10 -3 15 9
13 12 11 12 -6z m60 0 c0 -8 -4 -15 -9 -15 -10 0 -11 14 -1 23 9 10 10 9 10
-8z m180 0 c0 -8 -4 -12 -9 -9 -5 3 -6 10 -3 15 9 13 12 11 12 -6z m-2722 -6
c3 -3 -6 -5 -19 -5 -14 1 -28 4 -31 7 -3 3 6 5 19 5 14 -1 28 -4 31 -7z m142
-11 c-3 -8 -6 -5 -6 6 -1 11 2 17 5 13 3 -3 4 -12 1 -19z m383 7 c-5 -7 -8
-14 -5 -17 3 -2 -2 -5 -10 -5 -10 0 -12 4 -5 12 5 7 8 14 5 17 -3 2 2 5 10 5
10 0 12 -4 5 -12z m1564 7 c3 -5 -1 -9 -9 -9 -8 0 -12 4 -9 9 3 4 7 8 9 8 2 0
6 -4 9 -8z m196 2 c0 -8 -19 -13 -24 -6 -3 5 1 9 9 9 8 0 15 -2 15 -3z m393
-12 c15 -16 15 -19 2 -19 -8 0 -13 3 -10 5 3 3 0 11 -6 19 -17 20 -5 16 14 -5z
m-476 -5 c0 -8 -6 -14 -14 -14 -9 0 -10 4 -2 14 6 7 12 13 14 13 1 0 2 -6 2
-13z m-2355 -15 c-4 -11 -1 -14 12 -9 10 4 15 3 11 -3 -9 -15 -23 -12 -34 8
-7 14 -6 19 4 19 8 0 11 -7 7 -15z m171 0 c3 7 4 3 4 -9 -1 -12 -5 -19 -10
-16 -4 2 -16 -1 -25 -9 -15 -12 -16 -11 -4 4 8 10 10 23 6 30 -6 11 -5 11 8 0
13 -10 17 -10 21 0z m171 -3 c9 8 13 7 13 -3 0 -17 -30 -14 -33 3 -2 7 0 7 3
1 3 -7 9 -8 17 -1z m-33 -16 c13 -16 12 -17 -3 -4 -10 7 -18 15 -18 17 0 8 8
3 21 -13z m203 2 c11 -8 15 -15 9 -15 -7 0 -15 5 -18 10 -4 6 -11 8 -16 5 -5
-4 -9 -1 -9 4 0 15 11 13 34 -4z m126 5 c0 -5 -4 -10 -10 -10 -5 0 -10 5 -10
10 0 6 5 10 10 10 6 0 10 -4 10 -10z m155 2 c-2 -3 -26 -6 -51 -7 -26 -2 -43
0 -37 3 13 8 96 12 88 4z m105 -2 c0 -5 -4 -10 -10 -10 -5 0 -10 5 -10 10 0 6
5 10 10 10 6 0 10 -4 10 -10z m40 0 c0 -5 -4 -10 -10 -10 -5 0 -10 5 -10 10 0
6 5 10 10 10 6 0 10 -4 10 -10z m1225 1 c-9 -8 -36 -10 -30 -2 2 4 11 8 20 8
8 0 13 -3 10 -6z m-1770 -38 c-1 -16 2 -33 6 -39 5 -6 3 -11 -4 -11 -9 0 -13
12 -11 36 2 39 2 41 7 41 2 0 3 -12 2 -27z m42 21 c-3 -3 -12 -4 -19 -1 -8 3
-5 6 6 6 11 1 17 -2 13 -5z m38 -37 c1 -20 -1 -35 -3 -32 -3 3 -12 -1 -21 -8
-14 -11 -15 -10 -1 7 17 22 20 57 5 69 -6 5 -4 7 5 5 9 -3 15 -18 15 -41z
m329 35 c-5 -4 -10 -23 -9 -42 1 -29 -2 -36 -18 -36 -14 0 -16 2 -5 11 7 5 13
21 13 35 -2 31 3 40 18 40 8 0 9 -3 1 -8z m33 -11 c-10 -12 -9 -14 4 -9 9 4
16 1 16 -8 0 -9 -5 -10 -15 -5 -20 11 -24 38 -6 38 11 0 11 -3 1 -16z m1520 2
c0 -9 -4 -10 -14 -2 -7 6 -13 12 -13 14 0 1 6 2 13 2 8 0 14 -6 14 -14z m199
-8 c1 -8 -1 -17 -5 -19 -4 -3 -7 6 -7 19 0 25 8 25 12 0z m-2311 0 c17 0 37 4
45 10 12 7 13 6 3 -7 -7 -8 -25 -14 -40 -13 -16 1 -33 -2 -38 -6 -7 -5 -11 0
-12 14 -1 12 1 17 5 12 4 -6 21 -10 37 -10z m373 -10 c-3 -3 -9 2 -12 12 -6
14 -5 15 5 6 7 -7 10 -15 7 -18z m1642 4 c0 -5 -4 -9 -8 -9 -5 0 -9 7 -9 15 0
8 4 12 9 9 4 -3 8 -9 8 -15z m56 6 c-1 -8 -5 -17 -8 -21 -5 -4 -4 16 1 34 3 9
9 -1 7 -13z m121 2 c0 -8 -6 -14 -14 -14 -9 0 -10 4 -2 14 6 7 12 13 14 13 1
0 2 -6 2 -13z m-1997 -1 c0 -2 -7 -7 -16 -10 -8 -3 -12 -2 -9 4 6 10 25 14 25
6z m116 -32 c0 -13 -2 -22 -5 -19 -3 3 -6 17 -7 31 0 13 2 22 5 19 3 -3 6 -17
7 -31z m91 14 c-3 -8 -6 -5 -6 6 -1 11 2 17 5 13 3 -3 4 -12 1 -19z m80 0 c-3
-8 -6 -5 -6 6 -1 11 2 17 5 13 3 -3 4 -12 1 -19z m1773 13 c0 -6 -4 -12 -8
-15 -5 -3 -9 1 -9 9 0 8 4 15 9 15 4 0 8 -4 8 -9z m200 3 c0 -8 -19 -13 -24
-6 -3 5 1 9 9 9 8 0 15 -2 15 -3z m130 1 c0 -2 -6 -8 -13 -14 -10 -8 -14 -7
-14 2 0 8 6 14 14 14 7 0 13 -1 13 -2z m-2385 -25 c-3 -5 -12 -10 -18 -10 -7
0 -6 4 3 10 19 12 23 12 15 0z m390 -8 c-3 -3 -11 0 -18 7 -9 10 -8 11 6 5 10
-3 15 -9 12 -12z m1329 6 c-3 -4 -9 -8 -15 -8 -5 0 -9 4 -9 8 0 5 7 9 15 9 8
0 12 -4 9 -9z m433 -3 c0 -8 -4 -12 -9 -9 -4 3 -8 9 -8 15 0 5 4 9 8 9 5 0 9
-7 9 -15z m-1900 -17 c-3 -8 -6 -5 -6 6 -1 11 2 17 5 13 3 -3 4 -12 1 -19z
m238 12 c-3 -5 -12 -10 -18 -10 -7 0 -6 4 3 10 19 12 23 12 15 0z m1485 -11
c0 -5 -4 -9 -8 -9 -5 0 -9 7 -9 15 0 8 4 12 9 9 4 -3 8 -9 8 -15z m276 6 c-1
-8 -5 -17 -8 -21 -5 -4 -4 16 1 34 3 9 9 -1 7 -13z m-2491 -5 c3 -6 -1 -7 -9
-4 -18 7 -21 14 -7 14 6 0 13 -4 16 -10z m159 1 c-2 -3 -19 -6 -36 -7 -18 -2
-27 1 -20 5 13 8 64 10 56 2z m2190 0 c-8 -8 -34 -10 -38 -2 -3 4 6 7 19 7 14
0 22 -2 19 -5z m-358 -19 c-3 -3 -1 -10 4 -17 7 -8 6 -12 -3 -12 -7 0 -13 11
-13 23 0 12 4 20 9 17 4 -3 6 -8 3 -11z m-1911 -2 c-3 -5 -12 -10 -18 -10 -7
0 -6 4 3 10 19 12 23 12 15 0z m400 0 c3 -6 -1 -7 -9 -4 -18 7 -21 14 -7 14 6
0 13 -4 16 -10z m1590 1 c3 -5 2 -12 -3 -15 -5 -3 -9 1 -9 9 0 17 3 19 12 6z
m325 5 c0 -2 -7 -7 -16 -10 -8 -3 -12 -2 -9 4 6 10 25 14 25 6z m40 -4 c0 -5
-7 -9 -15 -9 -8 0 -12 4 -9 9 3 4 9 8 15 8 5 0 9 -4 9 -8z m-2243 -8 c-3 -3
-12 -4 -19 -1 -8 3 -5 6 6 6 11 1 17 -2 13 -5z m90 0 c-3 -3 -12 -4 -19 -1 -8
3 -5 6 6 6 11 1 17 -2 13 -5z m31 -19 c-3 -3 -9 2 -12 12 -6 14 -5 15 5 6 7
-7 10 -15 7 -18z m55 4 c-8 -8 -13 -7 -18 2 -5 8 -4 10 3 5 7 -4 12 -2 12 5 0
7 3 9 7 6 4 -4 2 -12 -4 -18z m2247 17 c0 -2 -6 -9 -14 -15 -11 -9 -16 -9 -22
0 -4 7 -3 9 4 5 6 -3 13 -2 17 4 6 10 15 14 15 6z m-2380 -10 c0 -2 -7 -7 -16
-10 -8 -3 -12 -2 -9 4 6 10 25 14 25 6z m1724 -5 c-8 -8 -34 -10 -38 -2 -3 4
6 7 19 7 14 0 22 -2 19 -5z m240 1 c3 -5 -1 -9 -9 -9 -8 0 -12 4 -9 9 3 4 7 8
9 8 2 0 6 -4 9 -8z m316 2 c0 -8 -19 -13 -24 -6 -3 5 1 9 9 9 8 0 15 -2 15 -3z
m-284 -39 c1 -8 -1 -17 -5 -19 -4 -3 -7 6 -7 19 0 25 8 25 12 0z m44 13 c0 -4
-4 -8 -9 -8 -6 0 -12 4 -15 8 -3 5 1 9 9 9 8 0 15 -4 15 -9z m-340 -19 c0 -5
-4 -9 -8 -9 -5 0 -9 7 -9 15 0 8 4 12 9 9 4 -3 8 -9 8 -15z m76 6 c-1 -8 -5
-17 -8 -21 -5 -4 -4 16 1 34 3 9 9 -1 7 -13z m44 -6 c0 -5 -4 -9 -8 -9 -5 0
-9 7 -9 15 0 8 4 12 9 9 4 -3 8 -9 8 -15z m297 8 c0 -14 -40 -17 -53 -4 -4 3
3 5 14 2 12 -2 24 0 27 6 8 13 12 11 12 -4z m-380 -12 c0 -8 -4 -12 -9 -9 -4
3 -8 9 -8 15 0 5 4 9 8 9 5 0 9 -7 9 -15z m578 6 c3 -5 2 -12 -3 -15 -5 -3 -9
1 -9 9 0 17 3 19 12 6z m-271 -19 c3 -5 -1 -9 -9 -9 -8 0 -15 4 -15 9 0 4 4 8
9 8 6 0 12 -4 15 -8z m113 -7 c0 -8 -4 -12 -9 -9 -4 3 -8 9 -8 15 0 5 4 9 8 9
5 0 9 -7 9 -15z m207 7 c3 -5 -1 -9 -9 -9 -8 0 -15 4 -15 9 0 4 4 8 9 8 6 0
12 -4 15 -8z m-464 -23 c0 -5 -4 -9 -8 -9 -5 0 -9 7 -9 15 0 8 4 12 9 9 4 -3
8 -9 8 -15z m215 12 c3 -5 2 -12 -3 -15 -5 -3 -9 1 -9 9 0 17 3 19 12 6z
m-438 -16 c0 -8 -4 -12 -9 -9 -5 3 -6 10 -3 15 9 13 12 11 12 -6z m37 7 c3 -5
-1 -9 -9 -9 -8 0 -12 4 -9 9 3 4 7 8 9 8 2 0 6 -4 9 -8z m90 -3 c3 -3 -5 -5
-19 -5 -13 0 -22 3 -19 7 4 8 30 6 38 -2z m156 5 c0 -8 -19 -13 -24 -6 -3 5 1
9 9 9 8 0 15 -2 15 -3z m324 -5 c3 -3 -5 -5 -19 -5 -13 0 -22 3 -19 7 4 8 30
6 38 -2z m-449 -18 c3 -5 2 -12 -3 -15 -5 -3 -9 1 -9 9 0 17 3 19 12 6z m325
5 c0 -2 -7 -7 -16 -10 -8 -3 -12 -2 -9 4 6 10 25 14 25 6z m137 -19 c0 -8 -6
-14 -14 -14 -9 0 -10 4 -2 14 6 7 12 13 14 13 1 0 2 -6 2 -13z m-612 -7 c3 -6
-1 -7 -9 -4 -18 7 -21 14 -7 14 6 0 13 -4 16 -10z m535 4 c0 -8 -19 -13 -24
-6 -3 5 1 9 9 9 8 0 15 -2 15 -3z m-294 -26 c3 -4 -1 -5 -10 -4 -8 1 -18 5
-22 8 -3 4 1 5 10 4 8 -1 18 -5 22 -8z m229 4 c-3 -3 0 -11 6 -19 17 -20 5
-16 -14 5 -15 16 -15 19 -2 19 8 0 13 -3 10 -5z m-458 -17 c0 -8 -4 -15 -9
-15 -10 0 -11 14 -1 23 9 10 10 9 10 -8z m123 -6 c0 -5 -4 -9 -8 -9 -5 0 -9 7
-9 15 0 8 4 12 9 9 4 -3 8 -9 8 -15z m56 -3 c0 -14 -3 -23 -7 -20 -6 3 -6 22
0 42 3 10 7 -2 7 -22z m239 5 c3 -5 2 -12 -3 -15 -5 -3 -9 1 -9 9 0 17 3 19
12 6z m-71 -23 c-3 -4 -9 -8 -15 -8 -5 0 -9 4 -9 8 0 5 7 9 15 9 8 0 12 -4 9
-9z m31 -7 c3 -5 2 -12 -3 -15 -5 -3 -9 1 -9 9 0 17 3 19 12 6z m146 -8 c13
-16 12 -17 -3 -4 -10 7 -18 15 -18 17 0 8 8 3 21 -13z m-544 -8 c0 -8 -4 -12
-9 -9 -5 3 -6 10 -3 15 9 13 12 11 12 -6z m238 -14 c3 -5 2 -12 -3 -15 -5 -3
-9 1 -9 9 0 17 3 19 12 6z m-175 -20 c0 -6 -4 -12 -8 -15 -5 -3 -9 1 -9 9 0 8
4 15 9 15 4 0 8 -4 8 -9z m55 0 c3 -5 2 -12 -3 -15 -5 -3 -9 1 -9 9 0 17 3 19
12 6z m240 0 c3 -5 2 -12 -3 -15 -5 -3 -9 1 -9 9 0 17 3 19 12 6z m96 -8 c12
-16 12 -17 -2 -6 -9 7 -20 9 -24 5 -5 -4 -5 -1 -1 6 9 16 11 15 27 -5z m-175
-28 c1 -8 -2 -15 -6 -15 -5 0 -8 9 -7 20 1 21 10 18 13 -5z m50 13 c3 -4 -1
-5 -10 -4 -8 1 -18 5 -22 8 -3 4 1 5 10 4 8 -1 18 -5 22 -8z m-209 -23 c0 -8
-4 -12 -9 -9 -4 3 -8 9 -8 15 0 5 4 9 8 9 5 0 9 -7 9 -15z m103 -36 c0 -5 -4
-9 -8 -9 -5 0 -9 7 -9 15 0 8 4 12 9 9 4 -3 8 -9 8 -15z m-105 -40 c3 -3 -6
-5 -19 -5 -14 1 -28 4 -31 7 -3 3 6 5 19 5 14 -1 28 -4 31 -7z m140 0 c3 -3
-6 -5 -19 -5 -14 1 -28 4 -31 7 -3 3 6 5 19 5 14 -1 28 -4 31 -7z m-91 -21
c-3 -4 -9 -8 -15 -8 -5 0 -9 4 -9 8 0 5 7 9 15 9 8 0 12 -4 9 -9z m32 -12 c0
-14 -3 -23 -7 -20 -6 3 -6 22 0 42 3 10 7 -2 7 -22z m-80 -12 c1 -9 0 -13 -4
-10 -3 4 -7 14 -8 22 -1 9 0 13 4 10 3 -4 7 -14 8 -22z m44 -12 c0 -5 -7 -9
-15 -9 -8 0 -12 4 -9 9 3 4 9 8 15 8 5 0 9 -4 9 -8z m-55 -21 c-9 -8 -36 -10
-30 -2 2 4 11 8 20 8 8 0 13 -3 10 -6z"/>
<path d="M1480 1366 c-211 -82 -298 -128 -375 -198 -66 -60 -85 -107 -66 -168
28 -95 205 -208 454 -289 52 -17 332 -76 457 -96 19 -3 71 -12 115 -20 89 -16
106 -18 290 -45 72 -10 162 -21 202 -25 40 -4 85 -8 100 -10 162 -20 698 -27
908 -12 110 8 255 23 323 33 289 43 517 90 737 149 72 20 139 37 149 40 62 14
151 50 202 81 337 202 177 463 -353 578 -35 7 -63 12 -63 11 0 -2 19 -14 43
-28 127 -75 130 -149 8 -212 -30 -15 -142 -53 -181 -60 -107 -21 -291 -55
-320 -59 -150 -21 -267 -36 -335 -42 -44 -4 -93 -8 -110 -10 -210 -21 -851
-21 -985 0 -14 3 -70 7 -124 11 -55 3 -183 17 -285 31 -185 24 -206 27 -311
44 -30 5 -71 12 -90 15 -230 37 -344 81 -370 144 -15 37 -7 63 37 124 19 26
33 47 31 47 -1 -1 -41 -16 -88 -34z"/>
</g>
</svg>
